<mxfile host="Electron" agent="Mozilla/5.0 (Windows NT 10.0; Win64; x64) AppleWebKit/537.36 (KHTML, like Gecko) draw.io/26.2.15 Chrome/134.0.6998.205 Electron/35.2.1 Safari/537.36" version="26.2.15">
  <diagram id="C5RBs43oDa-KdzZeNtuy" name="Page-1">
    <mxGraphModel dx="3143" dy="1391" grid="1" gridSize="10" guides="1" tooltips="1" connect="1" arrows="1" fold="1" page="1" pageScale="1" pageWidth="827" pageHeight="1169" math="0" shadow="0">
      <root>
        <mxCell id="WIyWlLk6GJQsqaUBKTNV-0" />
        <mxCell id="WIyWlLk6GJQsqaUBKTNV-1" parent="WIyWlLk6GJQsqaUBKTNV-0" />
        <mxCell id="lfDJwgHwz_u-ardoweUy-151" style="edgeStyle=orthogonalEdgeStyle;rounded=0;orthogonalLoop=1;jettySize=auto;html=1;entryX=1.001;entryY=0.9;entryDx=0;entryDy=0;endArrow=circlePlus;endFill=0;entryPerimeter=0;" edge="1" parent="WIyWlLk6GJQsqaUBKTNV-1" source="lfDJwgHwz_u-ardoweUy-139" target="lfDJwgHwz_u-ardoweUy-140">
          <mxGeometry relative="1" as="geometry">
            <Array as="points">
              <mxPoint x="580" y="755" />
              <mxPoint x="580" y="648" />
            </Array>
          </mxGeometry>
        </mxCell>
        <mxCell id="lfDJwgHwz_u-ardoweUy-139" value="&lt;p style=&quot;margin:0px;margin-top:4px;text-align:center;&quot;&gt;&lt;span style=&quot;font-weight: 700;&quot; data-lucid-content=&quot;{&amp;quot;t&amp;quot;:&amp;quot;&lt;&lt;enum&gt;&gt; RoleType&amp;quot;,&amp;quot;m&amp;quot;:[{&amp;quot;s&amp;quot;:0,&amp;quot;n&amp;quot;:&amp;quot;c&amp;quot;,&amp;quot;v&amp;quot;:&amp;quot;#000000ff&amp;quot;,&amp;quot;e&amp;quot;:9},{&amp;quot;s&amp;quot;:0,&amp;quot;n&amp;quot;:&amp;quot;fsp&amp;quot;,&amp;quot;v&amp;quot;:&amp;quot;ss_presetShapeStyle1_textStyle&amp;quot;,&amp;quot;e&amp;quot;:9},{&amp;quot;s&amp;quot;:0,&amp;quot;n&amp;quot;:&amp;quot;s&amp;quot;,&amp;quot;v&amp;quot;:22.22222222222222,&amp;quot;e&amp;quot;:9},{&amp;quot;s&amp;quot;:9,&amp;quot;n&amp;quot;:&amp;quot;s&amp;quot;,&amp;quot;v&amp;quot;:21.333333333333336,&amp;quot;e&amp;quot;:17}]}&quot; data-lucid-type=&quot;application/vnd.lucid.text&quot;&gt;&amp;lt;&amp;lt;enum&amp;gt;&amp;gt; &lt;/span&gt;&lt;/p&gt;&lt;div style=&quot;font-weight: 700; text-align: center;&quot;&gt;&lt;span data-lucid-content=&quot;{&amp;quot;t&amp;quot;:&amp;quot;&lt;&lt;enum&gt;&gt; RoleType&amp;quot;,&amp;quot;m&amp;quot;:[{&amp;quot;s&amp;quot;:0,&amp;quot;n&amp;quot;:&amp;quot;c&amp;quot;,&amp;quot;v&amp;quot;:&amp;quot;#000000ff&amp;quot;,&amp;quot;e&amp;quot;:9},{&amp;quot;s&amp;quot;:0,&amp;quot;n&amp;quot;:&amp;quot;fsp&amp;quot;,&amp;quot;v&amp;quot;:&amp;quot;ss_presetShapeStyle1_textStyle&amp;quot;,&amp;quot;e&amp;quot;:9},{&amp;quot;s&amp;quot;:0,&amp;quot;n&amp;quot;:&amp;quot;s&amp;quot;,&amp;quot;v&amp;quot;:22.22222222222222,&amp;quot;e&amp;quot;:9},{&amp;quot;s&amp;quot;:9,&amp;quot;n&amp;quot;:&amp;quot;s&amp;quot;,&amp;quot;v&amp;quot;:21.333333333333336,&amp;quot;e&amp;quot;:17}]}&quot; data-lucid-type=&quot;application/vnd.lucid.text&quot;&gt;RoleType&lt;/span&gt;&lt;/div&gt;&lt;hr size=&quot;1&quot; style=&quot;border-style:solid;&quot;&gt;&lt;p style=&quot;margin:0px;margin-left:4px;&quot;&gt;JOUEUR&lt;br&gt;CLUB_ADMIN&lt;br&gt;ADMIN&lt;/p&gt;&lt;hr size=&quot;1&quot; style=&quot;border-style:solid;&quot;&gt;&lt;p style=&quot;margin:0px;margin-left:4px;&quot;&gt;&lt;br&gt;&lt;/p&gt;" style="verticalAlign=top;align=left;overflow=fill;html=1;whiteSpace=wrap;" vertex="1" parent="WIyWlLk6GJQsqaUBKTNV-1">
          <mxGeometry x="730" y="680" width="160" height="130" as="geometry" />
        </mxCell>
        <mxCell id="lfDJwgHwz_u-ardoweUy-147" style="rounded=0;orthogonalLoop=1;jettySize=auto;html=1;entryX=1;entryY=0.5;entryDx=0;entryDy=0;edgeStyle=orthogonalEdgeStyle;endArrow=none;startFill=0;" edge="1" parent="WIyWlLk6GJQsqaUBKTNV-1" source="lfDJwgHwz_u-ardoweUy-140" target="lfDJwgHwz_u-ardoweUy-140">
          <mxGeometry relative="1" as="geometry">
            <mxPoint x="630" y="400" as="targetPoint" />
            <Array as="points">
              <mxPoint x="470" y="430" />
              <mxPoint x="610" y="430" />
              <mxPoint x="610" y="560" />
            </Array>
          </mxGeometry>
        </mxCell>
        <mxCell id="lfDJwgHwz_u-ardoweUy-154" style="rounded=0;orthogonalLoop=1;jettySize=auto;html=1;entryX=1;entryY=0.5;entryDx=0;entryDy=0;endArrow=none;startFill=0;" edge="1" parent="WIyWlLk6GJQsqaUBKTNV-1" source="lfDJwgHwz_u-ardoweUy-140" target="lfDJwgHwz_u-ardoweUy-141">
          <mxGeometry relative="1" as="geometry" />
        </mxCell>
        <mxCell id="lfDJwgHwz_u-ardoweUy-140" value="&lt;p style=&quot;margin:0px;margin-top:4px;text-align:center;&quot;&gt;&lt;font&gt;&lt;b&gt;User&lt;/b&gt;&lt;/font&gt;&lt;/p&gt;&lt;hr size=&quot;1&quot; style=&quot;border-style:solid;&quot;&gt;&lt;p style=&quot;margin:0px;margin-left:4px;&quot;&gt;&lt;span style=&quot;background-color: transparent; color: light-dark(rgb(0, 0, 0), rgb(255, 255, 255));&quot;&gt;# id:int&lt;/span&gt;&lt;/p&gt;&amp;nbsp;# name:string&lt;br&gt;&amp;nbsp;# email:string&lt;br&gt;&amp;nbsp;# passwored:string&lt;br&gt;&amp;nbsp;# bio:string&lt;br&gt;&amp;nbsp;# profileImage:String&lt;br&gt;&amp;nbsp;# bannerImage:String&lt;br&gt;&amp;nbsp;# roleType:RoleType&lt;br&gt;&amp;nbsp;# isActive:bolean&lt;hr size=&quot;1&quot; style=&quot;border-style:solid;&quot;&gt;&lt;p style=&quot;margin:0px;margin-left:4px;&quot;&gt;&lt;span style=&quot;background-color: transparent; color: light-dark(rgb(0, 0, 0), rgb(255, 255, 255));&quot;&gt;+register()&lt;/span&gt;&lt;/p&gt;&amp;nbsp;+login()" style="verticalAlign=top;align=left;overflow=fill;html=1;whiteSpace=wrap;" vertex="1" parent="WIyWlLk6GJQsqaUBKTNV-1">
          <mxGeometry x="390" y="450" width="160" height="220" as="geometry" />
        </mxCell>
        <mxCell id="lfDJwgHwz_u-ardoweUy-162" style="edgeStyle=orthogonalEdgeStyle;rounded=0;orthogonalLoop=1;jettySize=auto;html=1;entryX=0.436;entryY=1.005;entryDx=0;entryDy=0;endArrow=none;startFill=0;endFill=1;startArrow=none;entryPerimeter=0;" edge="1" parent="WIyWlLk6GJQsqaUBKTNV-1" target="lfDJwgHwz_u-ardoweUy-161">
          <mxGeometry relative="1" as="geometry">
            <mxPoint x="189" y="495" as="sourcePoint" />
            <mxPoint x="314" y="286" as="targetPoint" />
            <Array as="points">
              <mxPoint x="189" y="480" />
              <mxPoint x="255" y="480" />
            </Array>
          </mxGeometry>
        </mxCell>
        <mxCell id="lfDJwgHwz_u-ardoweUy-141" value="&lt;p style=&quot;margin:0px;margin-top:4px;text-align:center;&quot;&gt;&lt;span data-lucid-content=&quot;{&amp;quot;t&amp;quot;:&amp;quot;Poste&amp;quot;,&amp;quot;m&amp;quot;:[{&amp;quot;s&amp;quot;:0,&amp;quot;n&amp;quot;:&amp;quot;s&amp;quot;,&amp;quot;v&amp;quot;:22.22222222222222,&amp;quot;e&amp;quot;:5},{&amp;quot;s&amp;quot;:0,&amp;quot;n&amp;quot;:&amp;quot;fsp&amp;quot;,&amp;quot;v&amp;quot;:&amp;quot;ss_presetShapeStyle1_textStyle&amp;quot;,&amp;quot;e&amp;quot;:5},{&amp;quot;s&amp;quot;:0,&amp;quot;n&amp;quot;:&amp;quot;fsp2&amp;quot;,&amp;quot;v&amp;quot;:&amp;quot;ss_presetShapeStyle1_textStyle&amp;quot;,&amp;quot;e&amp;quot;:5}]}&quot; data-lucid-type=&quot;application/vnd.lucid.text&quot;&gt;&lt;font&gt;&lt;b&gt;Poste&lt;/b&gt;&lt;/font&gt;&lt;/span&gt;&lt;/p&gt;&lt;hr size=&quot;1&quot; style=&quot;border-style:solid;&quot;&gt;&lt;p style=&quot;margin:0px;margin-left:4px;&quot;&gt;&lt;span data-lucid-content=&quot;{&amp;quot;t&amp;quot;:&amp;quot;-id:int \n-title:string\n-content:string\n-creationDate:Date&amp;quot;,&amp;quot;m&amp;quot;:[{&amp;quot;s&amp;quot;:0,&amp;quot;n&amp;quot;:&amp;quot;s&amp;quot;,&amp;quot;v&amp;quot;:22.22222222222222,&amp;quot;e&amp;quot;:57},{&amp;quot;s&amp;quot;:0,&amp;quot;n&amp;quot;:&amp;quot;fsp&amp;quot;,&amp;quot;v&amp;quot;:&amp;quot;ss_presetShapeStyle1_textStyle&amp;quot;,&amp;quot;e&amp;quot;:57},{&amp;quot;s&amp;quot;:0,&amp;quot;n&amp;quot;:&amp;quot;fsp2&amp;quot;,&amp;quot;v&amp;quot;:&amp;quot;ss_presetShapeStyle1_textStyle&amp;quot;,&amp;quot;e&amp;quot;:57}]}&quot; data-lucid-type=&quot;application/vnd.lucid.text&quot;&gt;&lt;font&gt;- id:Integer&lt;br&gt;- content:String&lt;br&gt;- creationDate:Date&lt;/font&gt;&lt;/span&gt;&lt;/p&gt;&lt;hr size=&quot;1&quot; style=&quot;border-style:solid;&quot;&gt;&lt;p style=&quot;margin:0px;margin-left:4px;&quot;&gt;&lt;br&gt;&lt;/p&gt;" style="verticalAlign=top;align=left;overflow=fill;html=1;whiteSpace=wrap;" vertex="1" parent="WIyWlLk6GJQsqaUBKTNV-1">
          <mxGeometry x="110" y="495" width="160" height="130" as="geometry" />
        </mxCell>
        <mxCell id="lfDJwgHwz_u-ardoweUy-142" value="&lt;p style=&quot;margin:0px;margin-top:4px;text-align:center;&quot;&gt;&lt;span data-lucid-content=&quot;{&amp;quot;t&amp;quot;:&amp;quot;Poste&amp;quot;,&amp;quot;m&amp;quot;:[{&amp;quot;s&amp;quot;:0,&amp;quot;n&amp;quot;:&amp;quot;s&amp;quot;,&amp;quot;v&amp;quot;:22.22222222222222,&amp;quot;e&amp;quot;:5},{&amp;quot;s&amp;quot;:0,&amp;quot;n&amp;quot;:&amp;quot;fsp&amp;quot;,&amp;quot;v&amp;quot;:&amp;quot;ss_presetShapeStyle1_textStyle&amp;quot;,&amp;quot;e&amp;quot;:5},{&amp;quot;s&amp;quot;:0,&amp;quot;n&amp;quot;:&amp;quot;fsp2&amp;quot;,&amp;quot;v&amp;quot;:&amp;quot;ss_presetShapeStyle1_textStyle&amp;quot;,&amp;quot;e&amp;quot;:5}]}&quot; data-lucid-type=&quot;application/vnd.lucid.text&quot;&gt;&lt;font&gt;&lt;b&gt;Media&lt;/b&gt;&lt;/font&gt;&lt;/span&gt;&lt;/p&gt;&lt;hr size=&quot;1&quot; style=&quot;border-style:solid;&quot;&gt;&lt;p style=&quot;margin:0px;margin-left:4px;&quot;&gt;&lt;span data-lucid-content=&quot;{&amp;quot;t&amp;quot;:&amp;quot;-id:int \n-title:string\n-content:string\n-creationDate:Date&amp;quot;,&amp;quot;m&amp;quot;:[{&amp;quot;s&amp;quot;:0,&amp;quot;n&amp;quot;:&amp;quot;s&amp;quot;,&amp;quot;v&amp;quot;:22.22222222222222,&amp;quot;e&amp;quot;:57},{&amp;quot;s&amp;quot;:0,&amp;quot;n&amp;quot;:&amp;quot;fsp&amp;quot;,&amp;quot;v&amp;quot;:&amp;quot;ss_presetShapeStyle1_textStyle&amp;quot;,&amp;quot;e&amp;quot;:57},{&amp;quot;s&amp;quot;:0,&amp;quot;n&amp;quot;:&amp;quot;fsp2&amp;quot;,&amp;quot;v&amp;quot;:&amp;quot;ss_presetShapeStyle1_textStyle&amp;quot;,&amp;quot;e&amp;quot;:57}]}&quot; data-lucid-type=&quot;application/vnd.lucid.text&quot;&gt;&lt;font&gt;-&amp;nbsp;&lt;/font&gt;&lt;/span&gt;&lt;font&gt;&lt;span style=&quot;background-color: transparent; color: light-dark(rgb(0, 0, 0), rgb(255, 255, 255));&quot;&gt;id:&lt;/span&gt;&lt;span style=&quot;background-color: transparent; color: light-dark(rgb(0, 0, 0), rgb(255, 255, 255));&quot;&gt;Integer&lt;/span&gt;&lt;/font&gt;&lt;/p&gt;&lt;span data-lucid-content=&quot;{&amp;quot;t&amp;quot;:&amp;quot;-id:Integer \n-url:string\n-medaType:MedaType&amp;quot;,&amp;quot;m&amp;quot;:[{&amp;quot;s&amp;quot;:0,&amp;quot;n&amp;quot;:&amp;quot;c&amp;quot;,&amp;quot;v&amp;quot;:&amp;quot;#000000ff&amp;quot;,&amp;quot;e&amp;quot;:4},{&amp;quot;s&amp;quot;:0,&amp;quot;n&amp;quot;:&amp;quot;fsp&amp;quot;,&amp;quot;v&amp;quot;:&amp;quot;ss_presetShapeStyle1_textStyle&amp;quot;,&amp;quot;e&amp;quot;:43},{&amp;quot;s&amp;quot;:0,&amp;quot;n&amp;quot;:&amp;quot;s&amp;quot;,&amp;quot;v&amp;quot;:22.22222222222222,&amp;quot;e&amp;quot;:43},{&amp;quot;s&amp;quot;:11,&amp;quot;n&amp;quot;:&amp;quot;c&amp;quot;,&amp;quot;v&amp;quot;:&amp;quot;#000000ff&amp;quot;,&amp;quot;e&amp;quot;:35},{&amp;quot;s&amp;quot;:34,&amp;quot;n&amp;quot;:&amp;quot;c&amp;quot;,&amp;quot;v&amp;quot;:&amp;quot;#000000ff&amp;quot;,&amp;quot;e&amp;quot;:35},{&amp;quot;s&amp;quot;:35,&amp;quot;n&amp;quot;:&amp;quot;fsp2&amp;quot;,&amp;quot;v&amp;quot;:&amp;quot;ss_presetShapeStyle1_textStyle&amp;quot;,&amp;quot;e&amp;quot;:43},{&amp;quot;s&amp;quot;:27,&amp;quot;n&amp;quot;:&amp;quot;c&amp;quot;,&amp;quot;v&amp;quot;:&amp;quot;#000000ff&amp;quot;,&amp;quot;e&amp;quot;:35},{&amp;quot;s&amp;quot;:26,&amp;quot;n&amp;quot;:&amp;quot;fsp2&amp;quot;,&amp;quot;v&amp;quot;:&amp;quot;ss_presetShapeStyle1_textStyle&amp;quot;,&amp;quot;e&amp;quot;:34}]}&quot; data-lucid-type=&quot;application/vnd.lucid.text&quot;&gt;&lt;font&gt;&amp;nbsp;- url:String&lt;br&gt;&amp;nbsp;- medaType:MediaType&lt;/font&gt;&lt;/span&gt;&lt;hr size=&quot;1&quot; style=&quot;border-style:solid;&quot;&gt;&lt;p style=&quot;margin:0px;margin-left:4px;&quot;&gt;&lt;br&gt;&lt;/p&gt;" style="verticalAlign=top;align=left;overflow=fill;html=1;whiteSpace=wrap;" vertex="1" parent="WIyWlLk6GJQsqaUBKTNV-1">
          <mxGeometry x="-205" y="495" width="160" height="130" as="geometry" />
        </mxCell>
        <mxCell id="lfDJwgHwz_u-ardoweUy-143" value="&lt;p style=&quot;margin:0px;margin-top:4px;text-align:center;&quot;&gt;&lt;span style=&quot;font-weight: 700;&quot; data-lucid-content=&quot;{&amp;quot;t&amp;quot;:&amp;quot;&lt;&lt;enum&gt;&gt; RoleType&amp;quot;,&amp;quot;m&amp;quot;:[{&amp;quot;s&amp;quot;:0,&amp;quot;n&amp;quot;:&amp;quot;c&amp;quot;,&amp;quot;v&amp;quot;:&amp;quot;#000000ff&amp;quot;,&amp;quot;e&amp;quot;:9},{&amp;quot;s&amp;quot;:0,&amp;quot;n&amp;quot;:&amp;quot;fsp&amp;quot;,&amp;quot;v&amp;quot;:&amp;quot;ss_presetShapeStyle1_textStyle&amp;quot;,&amp;quot;e&amp;quot;:9},{&amp;quot;s&amp;quot;:0,&amp;quot;n&amp;quot;:&amp;quot;s&amp;quot;,&amp;quot;v&amp;quot;:22.22222222222222,&amp;quot;e&amp;quot;:9},{&amp;quot;s&amp;quot;:9,&amp;quot;n&amp;quot;:&amp;quot;s&amp;quot;,&amp;quot;v&amp;quot;:21.333333333333336,&amp;quot;e&amp;quot;:17}]}&quot; data-lucid-type=&quot;application/vnd.lucid.text&quot;&gt;&amp;lt;&amp;lt;enum&amp;gt;&amp;gt; &lt;/span&gt;&lt;/p&gt;&lt;div style=&quot;font-weight: 700; text-align: center;&quot;&gt;&lt;span data-lucid-content=&quot;{&amp;quot;t&amp;quot;:&amp;quot;&lt;&lt;enum&gt;&gt; RoleType&amp;quot;,&amp;quot;m&amp;quot;:[{&amp;quot;s&amp;quot;:0,&amp;quot;n&amp;quot;:&amp;quot;c&amp;quot;,&amp;quot;v&amp;quot;:&amp;quot;#000000ff&amp;quot;,&amp;quot;e&amp;quot;:9},{&amp;quot;s&amp;quot;:0,&amp;quot;n&amp;quot;:&amp;quot;fsp&amp;quot;,&amp;quot;v&amp;quot;:&amp;quot;ss_presetShapeStyle1_textStyle&amp;quot;,&amp;quot;e&amp;quot;:9},{&amp;quot;s&amp;quot;:0,&amp;quot;n&amp;quot;:&amp;quot;s&amp;quot;,&amp;quot;v&amp;quot;:22.22222222222222,&amp;quot;e&amp;quot;:9},{&amp;quot;s&amp;quot;:9,&amp;quot;n&amp;quot;:&amp;quot;s&amp;quot;,&amp;quot;v&amp;quot;:21.333333333333336,&amp;quot;e&amp;quot;:17}]}&quot; data-lucid-type=&quot;application/vnd.lucid.text&quot;&gt;MediaType&lt;/span&gt;&lt;/div&gt;&lt;hr size=&quot;1&quot; style=&quot;border-style:solid;&quot;&gt;&lt;p style=&quot;margin:0px;margin-left:4px;&quot;&gt;IMAGE&lt;br&gt;VIDEO&lt;br&gt;&lt;/p&gt;&lt;hr size=&quot;1&quot; style=&quot;border-style:solid;&quot;&gt;&lt;p style=&quot;margin:0px;margin-left:4px;&quot;&gt;&lt;br&gt;&lt;/p&gt;" style="verticalAlign=top;align=left;overflow=fill;html=1;whiteSpace=wrap;" vertex="1" parent="WIyWlLk6GJQsqaUBKTNV-1">
          <mxGeometry x="-447" y="517" width="160" height="100" as="geometry" />
        </mxCell>
        <mxCell id="lfDJwgHwz_u-ardoweUy-149" style="edgeStyle=orthogonalEdgeStyle;rounded=0;orthogonalLoop=1;jettySize=auto;html=1;endArrow=none;startFill=0;" edge="1" parent="WIyWlLk6GJQsqaUBKTNV-1" source="lfDJwgHwz_u-ardoweUy-144">
          <mxGeometry relative="1" as="geometry">
            <mxPoint x="610" y="470" as="targetPoint" />
            <Array as="points">
              <mxPoint x="670" y="255" />
              <mxPoint x="670" y="470" />
            </Array>
          </mxGeometry>
        </mxCell>
        <mxCell id="lfDJwgHwz_u-ardoweUy-144" value="&lt;p style=&quot;margin:0px;margin-top:4px;text-align:center;&quot;&gt;&lt;span data-lucid-content=&quot;{&amp;quot;t&amp;quot;:&amp;quot;Poste&amp;quot;,&amp;quot;m&amp;quot;:[{&amp;quot;s&amp;quot;:0,&amp;quot;n&amp;quot;:&amp;quot;s&amp;quot;,&amp;quot;v&amp;quot;:22.22222222222222,&amp;quot;e&amp;quot;:5},{&amp;quot;s&amp;quot;:0,&amp;quot;n&amp;quot;:&amp;quot;fsp&amp;quot;,&amp;quot;v&amp;quot;:&amp;quot;ss_presetShapeStyle1_textStyle&amp;quot;,&amp;quot;e&amp;quot;:5},{&amp;quot;s&amp;quot;:0,&amp;quot;n&amp;quot;:&amp;quot;fsp2&amp;quot;,&amp;quot;v&amp;quot;:&amp;quot;ss_presetShapeStyle1_textStyle&amp;quot;,&amp;quot;e&amp;quot;:5}]}&quot; data-lucid-type=&quot;application/vnd.lucid.text&quot;&gt;&lt;font&gt;&lt;b&gt;Follow&lt;/b&gt;&lt;/font&gt;&lt;/span&gt;&lt;/p&gt;&lt;hr size=&quot;1&quot; style=&quot;border-style:solid;&quot;&gt;&lt;p style=&quot;margin: 0px 0px 0px 4px;&quot;&gt;&lt;span data-lucid-content=&quot;{&amp;quot;t&amp;quot;:&amp;quot;-id:int \n-title:string\n-content:string\n-creationDate:Date&amp;quot;,&amp;quot;m&amp;quot;:[{&amp;quot;s&amp;quot;:0,&amp;quot;n&amp;quot;:&amp;quot;s&amp;quot;,&amp;quot;v&amp;quot;:22.22222222222222,&amp;quot;e&amp;quot;:57},{&amp;quot;s&amp;quot;:0,&amp;quot;n&amp;quot;:&amp;quot;fsp&amp;quot;,&amp;quot;v&amp;quot;:&amp;quot;ss_presetShapeStyle1_textStyle&amp;quot;,&amp;quot;e&amp;quot;:57},{&amp;quot;s&amp;quot;:0,&amp;quot;n&amp;quot;:&amp;quot;fsp2&amp;quot;,&amp;quot;v&amp;quot;:&amp;quot;ss_presetShapeStyle1_textStyle&amp;quot;,&amp;quot;e&amp;quot;:57}]}&quot; data-lucid-type=&quot;application/vnd.lucid.text&quot;&gt;- id:Integer&lt;br&gt;-&amp;nbsp;&lt;/span&gt;&lt;font style=&quot;&quot;&gt;&lt;span style=&quot;color: light-dark(rgb(0, 0, 0), rgb(255, 255, 255)); background-color: transparent;&quot;&gt;&lt;font style=&quot;font-size: 10px;&quot;&gt;Status&lt;/font&gt;&lt;/span&gt;&lt;span style=&quot;font-size: 11px; background-color: transparent; color: light-dark(rgb(0, 0, 0), rgb(255, 255, 255));&quot;&gt;:C&lt;/span&gt;&lt;/font&gt;&lt;span style=&quot;background-color: transparent; color: light-dark(rgb(0, 0, 0), rgb(255, 255, 255));&quot;&gt;&lt;font style=&quot;font-size: 11px;&quot;&gt;ategoryStatus&lt;/font&gt;&lt;/span&gt;&lt;/p&gt;&lt;p style=&quot;margin: 0px 0px 0px 4px;&quot;&gt;&lt;font style=&quot;font-size: 11px;&quot;&gt;-&amp;nbsp;&lt;/font&gt;&lt;span style=&quot;background-color: transparent; color: light-dark(rgb(0, 0, 0), rgb(255, 255, 255));&quot;&gt;creationDtae:Date&lt;/span&gt;&lt;/p&gt;&lt;hr size=&quot;1&quot; style=&quot;border-style:solid;&quot;&gt;&lt;p style=&quot;margin:0px;margin-left:4px;&quot;&gt;&lt;br&gt;&lt;/p&gt;" style="verticalAlign=top;align=left;overflow=fill;html=1;whiteSpace=wrap;" vertex="1" parent="WIyWlLk6GJQsqaUBKTNV-1">
          <mxGeometry x="750" y="190" width="160" height="130" as="geometry" />
        </mxCell>
        <mxCell id="lfDJwgHwz_u-ardoweUy-148" style="edgeStyle=orthogonalEdgeStyle;rounded=0;orthogonalLoop=1;jettySize=auto;html=1;endArrow=none;startFill=0;" edge="1" parent="WIyWlLk6GJQsqaUBKTNV-1" source="lfDJwgHwz_u-ardoweUy-145">
          <mxGeometry relative="1" as="geometry">
            <mxPoint x="610" y="500" as="targetPoint" />
          </mxGeometry>
        </mxCell>
        <mxCell id="lfDJwgHwz_u-ardoweUy-145" value="&lt;p style=&quot;margin:0px;margin-top:4px;text-align:center;&quot;&gt;&lt;span data-lucid-content=&quot;{&amp;quot;t&amp;quot;:&amp;quot;Poste&amp;quot;,&amp;quot;m&amp;quot;:[{&amp;quot;s&amp;quot;:0,&amp;quot;n&amp;quot;:&amp;quot;s&amp;quot;,&amp;quot;v&amp;quot;:22.22222222222222,&amp;quot;e&amp;quot;:5},{&amp;quot;s&amp;quot;:0,&amp;quot;n&amp;quot;:&amp;quot;fsp&amp;quot;,&amp;quot;v&amp;quot;:&amp;quot;ss_presetShapeStyle1_textStyle&amp;quot;,&amp;quot;e&amp;quot;:5},{&amp;quot;s&amp;quot;:0,&amp;quot;n&amp;quot;:&amp;quot;fsp2&amp;quot;,&amp;quot;v&amp;quot;:&amp;quot;ss_presetShapeStyle1_textStyle&amp;quot;,&amp;quot;e&amp;quot;:5}]}&quot; data-lucid-type=&quot;application/vnd.lucid.text&quot;&gt;&lt;font&gt;&lt;b&gt;Message&lt;/b&gt;&lt;/font&gt;&lt;/span&gt;&lt;/p&gt;&lt;hr size=&quot;1&quot; style=&quot;border-style:solid;&quot;&gt;&lt;p style=&quot;margin:0px;margin-left:4px;&quot;&gt;&lt;span data-lucid-content=&quot;{&amp;quot;t&amp;quot;:&amp;quot;-id:int \n-title:string\n-content:string\n-creationDate:Date&amp;quot;,&amp;quot;m&amp;quot;:[{&amp;quot;s&amp;quot;:0,&amp;quot;n&amp;quot;:&amp;quot;s&amp;quot;,&amp;quot;v&amp;quot;:22.22222222222222,&amp;quot;e&amp;quot;:57},{&amp;quot;s&amp;quot;:0,&amp;quot;n&amp;quot;:&amp;quot;fsp&amp;quot;,&amp;quot;v&amp;quot;:&amp;quot;ss_presetShapeStyle1_textStyle&amp;quot;,&amp;quot;e&amp;quot;:57},{&amp;quot;s&amp;quot;:0,&amp;quot;n&amp;quot;:&amp;quot;fsp2&amp;quot;,&amp;quot;v&amp;quot;:&amp;quot;ss_presetShapeStyle1_textStyle&amp;quot;,&amp;quot;e&amp;quot;:57}]}&quot; data-lucid-type=&quot;application/vnd.lucid.text&quot;&gt;&lt;font&gt;- id:Integer&lt;br&gt;-&amp;nbsp;&lt;/font&gt;&lt;/span&gt;&lt;font style=&quot;font-size: 11px;&quot;&gt;&lt;span style=&quot;background-color: transparent; color: light-dark(rgb(0, 0, 0), rgb(255, 255, 255));&quot;&gt;&lt;font&gt;message:String&lt;/font&gt;&lt;/span&gt;&lt;/font&gt;&lt;/p&gt;&lt;p style=&quot;margin:0px;margin-left:4px;&quot;&gt;&lt;font style=&quot;font-size: 11px;&quot;&gt;&lt;span style=&quot;background-color: transparent; color: light-dark(rgb(0, 0, 0), rgb(255, 255, 255));&quot;&gt;&lt;font&gt;-&amp;nbsp;&lt;/font&gt;&lt;/span&gt;&lt;/font&gt;&lt;span style=&quot;background-color: transparent; color: light-dark(rgb(0, 0, 0), rgb(255, 255, 255));&quot;&gt;&lt;font&gt;creationDtae:Date&lt;/font&gt;&lt;/span&gt;&lt;/p&gt;&lt;hr size=&quot;1&quot; style=&quot;border-style:solid;&quot;&gt;&lt;p style=&quot;margin:0px;margin-left:4px;&quot;&gt;&lt;br&gt;&lt;/p&gt;" style="verticalAlign=top;align=left;overflow=fill;html=1;whiteSpace=wrap;" vertex="1" parent="WIyWlLk6GJQsqaUBKTNV-1">
          <mxGeometry x="920" y="449" width="160" height="105" as="geometry" />
        </mxCell>
        <mxCell id="lfDJwgHwz_u-ardoweUy-150" style="edgeStyle=orthogonalEdgeStyle;rounded=0;orthogonalLoop=1;jettySize=auto;html=1;entryX=1;entryY=0.5;entryDx=0;entryDy=0;endArrow=circlePlus;endFill=0;" edge="1" parent="WIyWlLk6GJQsqaUBKTNV-1" source="lfDJwgHwz_u-ardoweUy-146" target="lfDJwgHwz_u-ardoweUy-144">
          <mxGeometry relative="1" as="geometry" />
        </mxCell>
        <mxCell id="lfDJwgHwz_u-ardoweUy-146" value="&lt;p style=&quot;margin:0px;margin-top:4px;text-align:center;&quot;&gt;&lt;span style=&quot;font-weight: 700;&quot; data-lucid-content=&quot;{&amp;quot;t&amp;quot;:&amp;quot;&lt;&lt;enum&gt;&gt; RoleType&amp;quot;,&amp;quot;m&amp;quot;:[{&amp;quot;s&amp;quot;:0,&amp;quot;n&amp;quot;:&amp;quot;c&amp;quot;,&amp;quot;v&amp;quot;:&amp;quot;#000000ff&amp;quot;,&amp;quot;e&amp;quot;:9},{&amp;quot;s&amp;quot;:0,&amp;quot;n&amp;quot;:&amp;quot;fsp&amp;quot;,&amp;quot;v&amp;quot;:&amp;quot;ss_presetShapeStyle1_textStyle&amp;quot;,&amp;quot;e&amp;quot;:9},{&amp;quot;s&amp;quot;:0,&amp;quot;n&amp;quot;:&amp;quot;s&amp;quot;,&amp;quot;v&amp;quot;:22.22222222222222,&amp;quot;e&amp;quot;:9},{&amp;quot;s&amp;quot;:9,&amp;quot;n&amp;quot;:&amp;quot;s&amp;quot;,&amp;quot;v&amp;quot;:21.333333333333336,&amp;quot;e&amp;quot;:17}]}&quot; data-lucid-type=&quot;application/vnd.lucid.text&quot;&gt;&amp;lt;&amp;lt;enum&amp;gt;&amp;gt; &lt;/span&gt;&lt;/p&gt;&lt;div style=&quot;text-align: center;&quot;&gt;&lt;b&gt;&lt;font style=&quot;text-align: left;&quot;&gt;&lt;span style=&quot;font-size: 11px; background-color: transparent; color: light-dark(rgb(0, 0, 0), rgb(255, 255, 255));&quot;&gt;C&lt;/span&gt;&lt;/font&gt;&lt;span style=&quot;color: light-dark(rgb(0, 0, 0), rgb(255, 255, 255)); text-align: left; background-color: transparent;&quot;&gt;&lt;font style=&quot;font-size: 11px;&quot;&gt;ategoryStatus&lt;/font&gt;&lt;/span&gt;&lt;/b&gt;&lt;/div&gt;&lt;hr size=&quot;1&quot; style=&quot;border-style:solid;&quot;&gt;&lt;p style=&quot;margin:0px;margin-left:4px;&quot;&gt;PENDING&lt;br&gt;ACCEPTED&lt;br&gt;&lt;/p&gt;&lt;hr size=&quot;1&quot; style=&quot;border-style:solid;&quot;&gt;&lt;p style=&quot;margin:0px;margin-left:4px;&quot;&gt;&lt;br&gt;&lt;/p&gt;" style="verticalAlign=top;align=left;overflow=fill;html=1;whiteSpace=wrap;" vertex="1" parent="WIyWlLk6GJQsqaUBKTNV-1">
          <mxGeometry x="1000" y="205" width="160" height="100" as="geometry" />
        </mxCell>
        <mxCell id="lfDJwgHwz_u-ardoweUy-152" value="0..*" style="text;html=1;align=center;verticalAlign=middle;resizable=0;points=[];autosize=1;strokeColor=none;fillColor=none;" vertex="1" parent="WIyWlLk6GJQsqaUBKTNV-1">
          <mxGeometry x="460" y="428" width="40" height="30" as="geometry" />
        </mxCell>
        <mxCell id="lfDJwgHwz_u-ardoweUy-153" value="0..*" style="text;html=1;align=center;verticalAlign=middle;resizable=0;points=[];autosize=1;strokeColor=none;fillColor=none;" vertex="1" parent="WIyWlLk6GJQsqaUBKTNV-1">
          <mxGeometry x="542" y="537" width="40" height="30" as="geometry" />
        </mxCell>
        <mxCell id="lfDJwgHwz_u-ardoweUy-155" value="1" style="text;html=1;align=center;verticalAlign=middle;resizable=0;points=[];autosize=1;strokeColor=none;fillColor=none;" vertex="1" parent="WIyWlLk6GJQsqaUBKTNV-1">
          <mxGeometry x="365" y="538" width="30" height="30" as="geometry" />
        </mxCell>
        <mxCell id="lfDJwgHwz_u-ardoweUy-156" value="0..*" style="text;html=1;align=center;verticalAlign=middle;resizable=0;points=[];autosize=1;strokeColor=none;fillColor=none;" vertex="1" parent="WIyWlLk6GJQsqaUBKTNV-1">
          <mxGeometry x="260" y="538" width="40" height="30" as="geometry" />
        </mxCell>
        <mxCell id="lfDJwgHwz_u-ardoweUy-157" style="rounded=0;orthogonalLoop=1;jettySize=auto;html=1;entryX=1;entryY=0.5;entryDx=0;entryDy=0;endArrow=none;startFill=0;" edge="1" parent="WIyWlLk6GJQsqaUBKTNV-1" source="lfDJwgHwz_u-ardoweUy-141" target="lfDJwgHwz_u-ardoweUy-142">
          <mxGeometry relative="1" as="geometry" />
        </mxCell>
        <mxCell id="lfDJwgHwz_u-ardoweUy-158" value="1..1" style="text;html=1;align=center;verticalAlign=middle;resizable=0;points=[];autosize=1;strokeColor=none;fillColor=none;" vertex="1" parent="WIyWlLk6GJQsqaUBKTNV-1">
          <mxGeometry x="78" y="537" width="40" height="30" as="geometry" />
        </mxCell>
        <mxCell id="lfDJwgHwz_u-ardoweUy-159" value="0..1" style="text;html=1;align=center;verticalAlign=middle;resizable=0;points=[];autosize=1;strokeColor=none;fillColor=none;" vertex="1" parent="WIyWlLk6GJQsqaUBKTNV-1">
          <mxGeometry x="-48" y="537" width="40" height="30" as="geometry" />
        </mxCell>
        <mxCell id="lfDJwgHwz_u-ardoweUy-160" style="edgeStyle=orthogonalEdgeStyle;rounded=0;orthogonalLoop=1;jettySize=auto;html=1;endArrow=circlePlus;endFill=0;entryX=-0.007;entryY=0.556;entryDx=0;entryDy=0;entryPerimeter=0;" edge="1" parent="WIyWlLk6GJQsqaUBKTNV-1" source="lfDJwgHwz_u-ardoweUy-143" target="lfDJwgHwz_u-ardoweUy-142">
          <mxGeometry relative="1" as="geometry">
            <mxPoint x="-210" y="564" as="targetPoint" />
          </mxGeometry>
        </mxCell>
        <mxCell id="lfDJwgHwz_u-ardoweUy-227" style="edgeStyle=orthogonalEdgeStyle;rounded=0;orthogonalLoop=1;jettySize=auto;html=1;entryX=1;entryY=0.5;entryDx=0;entryDy=0;endArrow=none;startFill=0;" edge="1" parent="WIyWlLk6GJQsqaUBKTNV-1" source="lfDJwgHwz_u-ardoweUy-161" target="lfDJwgHwz_u-ardoweUy-225">
          <mxGeometry relative="1" as="geometry" />
        </mxCell>
        <mxCell id="lfDJwgHwz_u-ardoweUy-161" value="&lt;p style=&quot;margin:0px;margin-top:4px;text-align:center;&quot;&gt;&lt;b&gt;Comment&lt;/b&gt;&lt;/p&gt;&lt;hr size=&quot;1&quot; style=&quot;border-style:solid;&quot;&gt;&lt;p style=&quot;margin:0px;margin-left:4px;&quot;&gt;&lt;span data-lucid-content=&quot;{&amp;quot;t&amp;quot;:&amp;quot;-id:int \n-title:string\n-content:string\n-creationDate:Date&amp;quot;,&amp;quot;m&amp;quot;:[{&amp;quot;s&amp;quot;:0,&amp;quot;n&amp;quot;:&amp;quot;s&amp;quot;,&amp;quot;v&amp;quot;:22.22222222222222,&amp;quot;e&amp;quot;:57},{&amp;quot;s&amp;quot;:0,&amp;quot;n&amp;quot;:&amp;quot;fsp&amp;quot;,&amp;quot;v&amp;quot;:&amp;quot;ss_presetShapeStyle1_textStyle&amp;quot;,&amp;quot;e&amp;quot;:57},{&amp;quot;s&amp;quot;:0,&amp;quot;n&amp;quot;:&amp;quot;fsp2&amp;quot;,&amp;quot;v&amp;quot;:&amp;quot;ss_presetShapeStyle1_textStyle&amp;quot;,&amp;quot;e&amp;quot;:57}]}&quot; data-lucid-type=&quot;application/vnd.lucid.text&quot;&gt;&lt;font&gt;- id:Integer&lt;br&gt;- content:String&lt;br&gt;- creationDate:Date&lt;/font&gt;&lt;/span&gt;&lt;/p&gt;&lt;hr size=&quot;1&quot; style=&quot;border-style:solid;&quot;&gt;&lt;p style=&quot;margin:0px;margin-left:4px;&quot;&gt;&lt;br&gt;&lt;/p&gt;" style="verticalAlign=top;align=left;overflow=fill;html=1;whiteSpace=wrap;" vertex="1" parent="WIyWlLk6GJQsqaUBKTNV-1">
          <mxGeometry x="185" y="110" width="160" height="130" as="geometry" />
        </mxCell>
        <mxCell id="lfDJwgHwz_u-ardoweUy-163" value="0..*" style="text;html=1;align=center;verticalAlign=middle;resizable=0;points=[];autosize=1;strokeColor=none;fillColor=none;" vertex="1" parent="WIyWlLk6GJQsqaUBKTNV-1">
          <mxGeometry x="221" y="233" width="40" height="30" as="geometry" />
        </mxCell>
        <mxCell id="lfDJwgHwz_u-ardoweUy-164" value="1..1" style="text;html=1;align=center;verticalAlign=middle;resizable=0;points=[];autosize=1;strokeColor=none;fillColor=none;" vertex="1" parent="WIyWlLk6GJQsqaUBKTNV-1">
          <mxGeometry x="157" y="470" width="40" height="30" as="geometry" />
        </mxCell>
        <mxCell id="lfDJwgHwz_u-ardoweUy-165" style="edgeStyle=orthogonalEdgeStyle;rounded=0;orthogonalLoop=1;jettySize=auto;html=1;exitX=-0.005;exitY=0.136;exitDx=0;exitDy=0;endArrow=none;startFill=0;exitPerimeter=0;endFill=1;startArrow=none;" edge="1" parent="WIyWlLk6GJQsqaUBKTNV-1" source="lfDJwgHwz_u-ardoweUy-140">
          <mxGeometry relative="1" as="geometry">
            <mxPoint x="320" y="240" as="targetPoint" />
            <Array as="points">
              <mxPoint x="320" y="480" />
            </Array>
          </mxGeometry>
        </mxCell>
        <mxCell id="lfDJwgHwz_u-ardoweUy-166" value="1..1&amp;nbsp;" style="text;html=1;align=center;verticalAlign=middle;resizable=0;points=[];autosize=1;strokeColor=none;fillColor=none;" vertex="1" parent="WIyWlLk6GJQsqaUBKTNV-1">
          <mxGeometry x="355" y="458" width="50" height="30" as="geometry" />
        </mxCell>
        <mxCell id="lfDJwgHwz_u-ardoweUy-167" value="0..*" style="text;html=1;align=center;verticalAlign=middle;resizable=0;points=[];autosize=1;strokeColor=none;fillColor=none;" vertex="1" parent="WIyWlLk6GJQsqaUBKTNV-1">
          <mxGeometry x="310" y="236" width="40" height="30" as="geometry" />
        </mxCell>
        <mxCell id="lfDJwgHwz_u-ardoweUy-174" style="edgeStyle=orthogonalEdgeStyle;rounded=0;orthogonalLoop=1;jettySize=auto;html=1;entryX=0.25;entryY=0;entryDx=0;entryDy=0;endArrow=none;endFill=1;startFill=0;exitX=0.5;exitY=0;exitDx=0;exitDy=0;" edge="1" parent="WIyWlLk6GJQsqaUBKTNV-1" source="lfDJwgHwz_u-ardoweUy-168" target="lfDJwgHwz_u-ardoweUy-140">
          <mxGeometry relative="1" as="geometry">
            <Array as="points">
              <mxPoint x="-207" y="60" />
              <mxPoint x="430" y="60" />
            </Array>
          </mxGeometry>
        </mxCell>
        <mxCell id="lfDJwgHwz_u-ardoweUy-168" value="&lt;p style=&quot;margin:0px;margin-top:4px;text-align:center;&quot;&gt;&lt;b&gt;Reaction&lt;/b&gt;&lt;/p&gt;&lt;hr size=&quot;1&quot; style=&quot;border-style:solid;&quot;&gt;&lt;p style=&quot;margin:0px;margin-left:4px;&quot;&gt;&lt;span data-lucid-content=&quot;{&amp;quot;t&amp;quot;:&amp;quot;-id:int \n-title:string\n-content:string\n-creationDate:Date&amp;quot;,&amp;quot;m&amp;quot;:[{&amp;quot;s&amp;quot;:0,&amp;quot;n&amp;quot;:&amp;quot;s&amp;quot;,&amp;quot;v&amp;quot;:22.22222222222222,&amp;quot;e&amp;quot;:57},{&amp;quot;s&amp;quot;:0,&amp;quot;n&amp;quot;:&amp;quot;fsp&amp;quot;,&amp;quot;v&amp;quot;:&amp;quot;ss_presetShapeStyle1_textStyle&amp;quot;,&amp;quot;e&amp;quot;:57},{&amp;quot;s&amp;quot;:0,&amp;quot;n&amp;quot;:&amp;quot;fsp2&amp;quot;,&amp;quot;v&amp;quot;:&amp;quot;ss_presetShapeStyle1_textStyle&amp;quot;,&amp;quot;e&amp;quot;:57}]}&quot; data-lucid-type=&quot;application/vnd.lucid.text&quot;&gt;&lt;font&gt;- id:Integer&lt;br&gt;-&amp;nbsp;&lt;span data-lucid-content=&quot;{&amp;quot;t&amp;quot;:&amp;quot;reactionTyoe:ReactionTyoe&amp;quot;,&amp;quot;m&amp;quot;:[{&amp;quot;s&amp;quot;:0,&amp;quot;n&amp;quot;:&amp;quot;fsp&amp;quot;,&amp;quot;v&amp;quot;:&amp;quot;ss_presetShapeStyle1_textStyle&amp;quot;,&amp;quot;e&amp;quot;:25},{&amp;quot;s&amp;quot;:0,&amp;quot;n&amp;quot;:&amp;quot;s&amp;quot;,&amp;quot;v&amp;quot;:22.22222222222222,&amp;quot;e&amp;quot;:25},{&amp;quot;s&amp;quot;:12,&amp;quot;n&amp;quot;:&amp;quot;c&amp;quot;,&amp;quot;v&amp;quot;:&amp;quot;#000000ff&amp;quot;,&amp;quot;e&amp;quot;:13}]}&quot; data-lucid-type=&quot;application/vnd.lucid.text&quot;&gt;&lt;font style=&quot;font-size: 11px;&quot;&gt;reactionTyoe:ReactionTyoe&lt;br&gt;&lt;/font&gt;&lt;/span&gt;- creationDate:Date&lt;/font&gt;&lt;/span&gt;&lt;/p&gt;&lt;hr size=&quot;1&quot; style=&quot;border-style:solid;&quot;&gt;&lt;p style=&quot;margin:0px;margin-left:4px;&quot;&gt;&lt;br&gt;&lt;/p&gt;" style="verticalAlign=top;align=left;overflow=fill;html=1;whiteSpace=wrap;" vertex="1" parent="WIyWlLk6GJQsqaUBKTNV-1">
          <mxGeometry x="-287" y="244" width="160" height="130" as="geometry" />
        </mxCell>
        <mxCell id="lfDJwgHwz_u-ardoweUy-169" style="edgeStyle=orthogonalEdgeStyle;rounded=0;orthogonalLoop=1;jettySize=auto;html=1;exitX=0.998;exitY=0.816;exitDx=0;exitDy=0;exitPerimeter=0;endArrow=none;startFill=0;endFill=1;" edge="1" parent="WIyWlLk6GJQsqaUBKTNV-1" source="lfDJwgHwz_u-ardoweUy-168">
          <mxGeometry relative="1" as="geometry">
            <mxPoint x="140" y="495" as="targetPoint" />
            <Array as="points">
              <mxPoint x="140" y="350" />
              <mxPoint x="140" y="495" />
            </Array>
          </mxGeometry>
        </mxCell>
        <mxCell id="lfDJwgHwz_u-ardoweUy-170" value="0..*" style="text;html=1;align=center;verticalAlign=middle;resizable=0;points=[];autosize=1;strokeColor=none;fillColor=none;" vertex="1" parent="WIyWlLk6GJQsqaUBKTNV-1">
          <mxGeometry x="108" y="472" width="40" height="30" as="geometry" />
        </mxCell>
        <mxCell id="lfDJwgHwz_u-ardoweUy-171" value="0..*" style="text;html=1;align=center;verticalAlign=middle;resizable=0;points=[];autosize=1;strokeColor=none;fillColor=none;" vertex="1" parent="WIyWlLk6GJQsqaUBKTNV-1">
          <mxGeometry x="-10" y="343" width="40" height="30" as="geometry" />
        </mxCell>
        <mxCell id="lfDJwgHwz_u-ardoweUy-173" style="edgeStyle=orthogonalEdgeStyle;rounded=0;orthogonalLoop=1;jettySize=auto;html=1;entryX=0;entryY=0.5;entryDx=0;entryDy=0;endArrow=circlePlus;endFill=0;" edge="1" parent="WIyWlLk6GJQsqaUBKTNV-1" source="lfDJwgHwz_u-ardoweUy-172" target="lfDJwgHwz_u-ardoweUy-168">
          <mxGeometry relative="1" as="geometry" />
        </mxCell>
        <mxCell id="lfDJwgHwz_u-ardoweUy-172" value="&lt;p style=&quot;margin:0px;margin-top:4px;text-align:center;&quot;&gt;&lt;span style=&quot;font-weight: 700;&quot; data-lucid-content=&quot;{&amp;quot;t&amp;quot;:&amp;quot;&lt;&lt;enum&gt;&gt; RoleType&amp;quot;,&amp;quot;m&amp;quot;:[{&amp;quot;s&amp;quot;:0,&amp;quot;n&amp;quot;:&amp;quot;c&amp;quot;,&amp;quot;v&amp;quot;:&amp;quot;#000000ff&amp;quot;,&amp;quot;e&amp;quot;:9},{&amp;quot;s&amp;quot;:0,&amp;quot;n&amp;quot;:&amp;quot;fsp&amp;quot;,&amp;quot;v&amp;quot;:&amp;quot;ss_presetShapeStyle1_textStyle&amp;quot;,&amp;quot;e&amp;quot;:9},{&amp;quot;s&amp;quot;:0,&amp;quot;n&amp;quot;:&amp;quot;s&amp;quot;,&amp;quot;v&amp;quot;:22.22222222222222,&amp;quot;e&amp;quot;:9},{&amp;quot;s&amp;quot;:9,&amp;quot;n&amp;quot;:&amp;quot;s&amp;quot;,&amp;quot;v&amp;quot;:21.333333333333336,&amp;quot;e&amp;quot;:17}]}&quot; data-lucid-type=&quot;application/vnd.lucid.text&quot;&gt;&amp;lt;&amp;lt;enum&amp;gt;&amp;gt; &lt;/span&gt;&lt;/p&gt;&lt;div style=&quot;font-weight: 700; text-align: center;&quot;&gt;&lt;span data-lucid-content=&quot;{&amp;quot;t&amp;quot;:&amp;quot;&lt;&lt;enum&gt;&gt; RoleType&amp;quot;,&amp;quot;m&amp;quot;:[{&amp;quot;s&amp;quot;:0,&amp;quot;n&amp;quot;:&amp;quot;c&amp;quot;,&amp;quot;v&amp;quot;:&amp;quot;#000000ff&amp;quot;,&amp;quot;e&amp;quot;:9},{&amp;quot;s&amp;quot;:0,&amp;quot;n&amp;quot;:&amp;quot;fsp&amp;quot;,&amp;quot;v&amp;quot;:&amp;quot;ss_presetShapeStyle1_textStyle&amp;quot;,&amp;quot;e&amp;quot;:9},{&amp;quot;s&amp;quot;:0,&amp;quot;n&amp;quot;:&amp;quot;s&amp;quot;,&amp;quot;v&amp;quot;:22.22222222222222,&amp;quot;e&amp;quot;:9},{&amp;quot;s&amp;quot;:9,&amp;quot;n&amp;quot;:&amp;quot;s&amp;quot;,&amp;quot;v&amp;quot;:21.333333333333336,&amp;quot;e&amp;quot;:17}]}&quot; data-lucid-type=&quot;application/vnd.lucid.text&quot;&gt;ReactionType&lt;/span&gt;&lt;/div&gt;&lt;hr size=&quot;1&quot; style=&quot;border-style:solid;&quot;&gt;&lt;p style=&quot;margin:0px;margin-left:4px;&quot;&gt;LIKE&lt;br&gt;HAHA&lt;/p&gt;&lt;p style=&quot;margin:0px;margin-left:4px;&quot;&gt;WOW&lt;/p&gt;&lt;p style=&quot;margin:0px;margin-left:4px;&quot;&gt;GRR&lt;/p&gt;&lt;p style=&quot;margin:0px;margin-left:4px;&quot;&gt;SAD&lt;/p&gt;&lt;p style=&quot;margin:0px;margin-left:4px;&quot;&gt;LOVE&lt;/p&gt;&lt;hr size=&quot;1&quot; style=&quot;border-style:solid;&quot;&gt;&lt;p style=&quot;margin:0px;margin-left:4px;&quot;&gt;&lt;br&gt;&lt;/p&gt;" style="verticalAlign=top;align=left;overflow=fill;html=1;whiteSpace=wrap;" vertex="1" parent="WIyWlLk6GJQsqaUBKTNV-1">
          <mxGeometry x="-510" y="228.5" width="160" height="161" as="geometry" />
        </mxCell>
        <mxCell id="lfDJwgHwz_u-ardoweUy-175" value="1..1&amp;nbsp;" style="text;html=1;align=center;verticalAlign=middle;resizable=0;points=[];autosize=1;strokeColor=none;fillColor=none;" vertex="1" parent="WIyWlLk6GJQsqaUBKTNV-1">
          <mxGeometry x="395" y="428" width="50" height="30" as="geometry" />
        </mxCell>
        <mxCell id="lfDJwgHwz_u-ardoweUy-176" value="0..*" style="text;html=1;align=center;verticalAlign=middle;resizable=0;points=[];autosize=1;strokeColor=none;fillColor=none;" vertex="1" parent="WIyWlLk6GJQsqaUBKTNV-1">
          <mxGeometry x="-242" y="218" width="40" height="30" as="geometry" />
        </mxCell>
        <mxCell id="lfDJwgHwz_u-ardoweUy-177" value="&lt;p style=&quot;margin:0px;margin-top:4px;text-align:center;&quot;&gt;&lt;span data-lucid-content=&quot;{&amp;quot;t&amp;quot;:&amp;quot;Poste&amp;quot;,&amp;quot;m&amp;quot;:[{&amp;quot;s&amp;quot;:0,&amp;quot;n&amp;quot;:&amp;quot;s&amp;quot;,&amp;quot;v&amp;quot;:22.22222222222222,&amp;quot;e&amp;quot;:5},{&amp;quot;s&amp;quot;:0,&amp;quot;n&amp;quot;:&amp;quot;fsp&amp;quot;,&amp;quot;v&amp;quot;:&amp;quot;ss_presetShapeStyle1_textStyle&amp;quot;,&amp;quot;e&amp;quot;:5},{&amp;quot;s&amp;quot;:0,&amp;quot;n&amp;quot;:&amp;quot;fsp2&amp;quot;,&amp;quot;v&amp;quot;:&amp;quot;ss_presetShapeStyle1_textStyle&amp;quot;,&amp;quot;e&amp;quot;:5}]}&quot; data-lucid-type=&quot;application/vnd.lucid.text&quot;&gt;&lt;font&gt;&lt;b&gt;Joueur&lt;/b&gt;&lt;/font&gt;&lt;/span&gt;&lt;/p&gt;&lt;hr size=&quot;1&quot; style=&quot;border-style:solid;&quot;&gt;&lt;p style=&quot;margin:0px;margin-left:4px;&quot;&gt;&lt;span data-lucid-content=&quot;{&amp;quot;t&amp;quot;:&amp;quot;-id:int \n-title:string\n-content:string\n-creationDate:Date&amp;quot;,&amp;quot;m&amp;quot;:[{&amp;quot;s&amp;quot;:0,&amp;quot;n&amp;quot;:&amp;quot;s&amp;quot;,&amp;quot;v&amp;quot;:22.22222222222222,&amp;quot;e&amp;quot;:57},{&amp;quot;s&amp;quot;:0,&amp;quot;n&amp;quot;:&amp;quot;fsp&amp;quot;,&amp;quot;v&amp;quot;:&amp;quot;ss_presetShapeStyle1_textStyle&amp;quot;,&amp;quot;e&amp;quot;:57},{&amp;quot;s&amp;quot;:0,&amp;quot;n&amp;quot;:&amp;quot;fsp2&amp;quot;,&amp;quot;v&amp;quot;:&amp;quot;ss_presetShapeStyle1_textStyle&amp;quot;,&amp;quot;e&amp;quot;:57}]}&quot; data-lucid-type=&quot;application/vnd.lucid.text&quot;&gt;&lt;font&gt;- id:Integer&lt;br&gt;&lt;/font&gt;&lt;/span&gt;&lt;/p&gt;&lt;hr size=&quot;1&quot; style=&quot;border-style:solid;&quot;&gt;&lt;p style=&quot;margin:0px;margin-left:4px;&quot;&gt;&lt;br&gt;&lt;/p&gt;" style="verticalAlign=top;align=left;overflow=fill;html=1;whiteSpace=wrap;" vertex="1" parent="WIyWlLk6GJQsqaUBKTNV-1">
          <mxGeometry x="245" y="870" width="160" height="70" as="geometry" />
        </mxCell>
        <mxCell id="lfDJwgHwz_u-ardoweUy-187" style="edgeStyle=orthogonalEdgeStyle;rounded=0;orthogonalLoop=1;jettySize=auto;html=1;endArrow=none;startFill=0;" edge="1" parent="WIyWlLk6GJQsqaUBKTNV-1" source="lfDJwgHwz_u-ardoweUy-178" target="lfDJwgHwz_u-ardoweUy-186">
          <mxGeometry relative="1" as="geometry" />
        </mxCell>
        <mxCell id="lfDJwgHwz_u-ardoweUy-212" style="edgeStyle=orthogonalEdgeStyle;rounded=0;orthogonalLoop=1;jettySize=auto;html=1;entryX=1;entryY=0.5;entryDx=0;entryDy=0;exitX=0.5;exitY=1;exitDx=0;exitDy=0;endArrow=none;startFill=0;" edge="1" parent="WIyWlLk6GJQsqaUBKTNV-1" source="lfDJwgHwz_u-ardoweUy-178" target="lfDJwgHwz_u-ardoweUy-211">
          <mxGeometry relative="1" as="geometry" />
        </mxCell>
        <mxCell id="lfDJwgHwz_u-ardoweUy-178" value="&lt;p style=&quot;margin:0px;margin-top:4px;text-align:center;&quot;&gt;&lt;span data-lucid-content=&quot;{&amp;quot;t&amp;quot;:&amp;quot;Poste&amp;quot;,&amp;quot;m&amp;quot;:[{&amp;quot;s&amp;quot;:0,&amp;quot;n&amp;quot;:&amp;quot;s&amp;quot;,&amp;quot;v&amp;quot;:22.22222222222222,&amp;quot;e&amp;quot;:5},{&amp;quot;s&amp;quot;:0,&amp;quot;n&amp;quot;:&amp;quot;fsp&amp;quot;,&amp;quot;v&amp;quot;:&amp;quot;ss_presetShapeStyle1_textStyle&amp;quot;,&amp;quot;e&amp;quot;:5},{&amp;quot;s&amp;quot;:0,&amp;quot;n&amp;quot;:&amp;quot;fsp2&amp;quot;,&amp;quot;v&amp;quot;:&amp;quot;ss_presetShapeStyle1_textStyle&amp;quot;,&amp;quot;e&amp;quot;:5}]}&quot; data-lucid-type=&quot;application/vnd.lucid.text&quot;&gt;&lt;font&gt;&lt;b&gt;ClubAdmin&lt;/b&gt;&lt;/font&gt;&lt;/span&gt;&lt;/p&gt;&lt;hr size=&quot;1&quot; style=&quot;border-style:solid;&quot;&gt;&lt;p style=&quot;margin:0px;margin-left:4px;&quot;&gt;&lt;span data-lucid-content=&quot;{&amp;quot;t&amp;quot;:&amp;quot;-id:int \n-title:string\n-content:string\n-creationDate:Date&amp;quot;,&amp;quot;m&amp;quot;:[{&amp;quot;s&amp;quot;:0,&amp;quot;n&amp;quot;:&amp;quot;s&amp;quot;,&amp;quot;v&amp;quot;:22.22222222222222,&amp;quot;e&amp;quot;:57},{&amp;quot;s&amp;quot;:0,&amp;quot;n&amp;quot;:&amp;quot;fsp&amp;quot;,&amp;quot;v&amp;quot;:&amp;quot;ss_presetShapeStyle1_textStyle&amp;quot;,&amp;quot;e&amp;quot;:57},{&amp;quot;s&amp;quot;:0,&amp;quot;n&amp;quot;:&amp;quot;fsp2&amp;quot;,&amp;quot;v&amp;quot;:&amp;quot;ss_presetShapeStyle1_textStyle&amp;quot;,&amp;quot;e&amp;quot;:57}]}&quot; data-lucid-type=&quot;application/vnd.lucid.text&quot;&gt;&lt;font&gt;- id:Integer&lt;br&gt;- descroption:String&lt;/font&gt;&lt;/span&gt;&lt;/p&gt;&lt;p style=&quot;margin:0px;margin-left:4px;&quot;&gt;&lt;span data-lucid-content=&quot;{&amp;quot;t&amp;quot;:&amp;quot;-id:int \n-title:string\n-content:string\n-creationDate:Date&amp;quot;,&amp;quot;m&amp;quot;:[{&amp;quot;s&amp;quot;:0,&amp;quot;n&amp;quot;:&amp;quot;s&amp;quot;,&amp;quot;v&amp;quot;:22.22222222222222,&amp;quot;e&amp;quot;:57},{&amp;quot;s&amp;quot;:0,&amp;quot;n&amp;quot;:&amp;quot;fsp&amp;quot;,&amp;quot;v&amp;quot;:&amp;quot;ss_presetShapeStyle1_textStyle&amp;quot;,&amp;quot;e&amp;quot;:57},{&amp;quot;s&amp;quot;:0,&amp;quot;n&amp;quot;:&amp;quot;fsp2&amp;quot;,&amp;quot;v&amp;quot;:&amp;quot;ss_presetShapeStyle1_textStyle&amp;quot;,&amp;quot;e&amp;quot;:57}]}&quot; data-lucid-type=&quot;application/vnd.lucid.text&quot;&gt;&lt;font&gt;- ecole:String&lt;/font&gt;&lt;/span&gt;&lt;/p&gt;&lt;p style=&quot;margin:0px;margin-left:4px;&quot;&gt;&lt;span data-lucid-content=&quot;{&amp;quot;t&amp;quot;:&amp;quot;-id:int \n-title:string\n-content:string\n-creationDate:Date&amp;quot;,&amp;quot;m&amp;quot;:[{&amp;quot;s&amp;quot;:0,&amp;quot;n&amp;quot;:&amp;quot;s&amp;quot;,&amp;quot;v&amp;quot;:22.22222222222222,&amp;quot;e&amp;quot;:57},{&amp;quot;s&amp;quot;:0,&amp;quot;n&amp;quot;:&amp;quot;fsp&amp;quot;,&amp;quot;v&amp;quot;:&amp;quot;ss_presetShapeStyle1_textStyle&amp;quot;,&amp;quot;e&amp;quot;:57},{&amp;quot;s&amp;quot;:0,&amp;quot;n&amp;quot;:&amp;quot;fsp2&amp;quot;,&amp;quot;v&amp;quot;:&amp;quot;ss_presetShapeStyle1_textStyle&amp;quot;,&amp;quot;e&amp;quot;:57}]}&quot; data-lucid-type=&quot;application/vnd.lucid.text&quot;&gt;&lt;font&gt;- tactique:String&lt;/font&gt;&lt;/span&gt;&lt;/p&gt;&lt;p style=&quot;margin:0px;margin-left:4px;&quot;&gt;&lt;span data-lucid-content=&quot;{&amp;quot;t&amp;quot;:&amp;quot;-id:int \n-title:string\n-content:string\n-creationDate:Date&amp;quot;,&amp;quot;m&amp;quot;:[{&amp;quot;s&amp;quot;:0,&amp;quot;n&amp;quot;:&amp;quot;s&amp;quot;,&amp;quot;v&amp;quot;:22.22222222222222,&amp;quot;e&amp;quot;:57},{&amp;quot;s&amp;quot;:0,&amp;quot;n&amp;quot;:&amp;quot;fsp&amp;quot;,&amp;quot;v&amp;quot;:&amp;quot;ss_presetShapeStyle1_textStyle&amp;quot;,&amp;quot;e&amp;quot;:57},{&amp;quot;s&amp;quot;:0,&amp;quot;n&amp;quot;:&amp;quot;fsp2&amp;quot;,&amp;quot;v&amp;quot;:&amp;quot;ss_presetShapeStyle1_textStyle&amp;quot;,&amp;quot;e&amp;quot;:57}]}&quot; data-lucid-type=&quot;application/vnd.lucid.text&quot;&gt;&lt;font&gt;- gestion:String&lt;br&gt;- creationDate:Date&lt;/font&gt;&lt;/span&gt;&lt;/p&gt;&lt;hr size=&quot;1&quot; style=&quot;border-style:solid;&quot;&gt;&lt;p style=&quot;margin:0px;margin-left:4px;&quot;&gt;&lt;br&gt;&lt;/p&gt;" style="verticalAlign=top;align=left;overflow=fill;html=1;whiteSpace=wrap;" vertex="1" parent="WIyWlLk6GJQsqaUBKTNV-1">
          <mxGeometry x="500" y="870" width="160" height="140" as="geometry" />
        </mxCell>
        <mxCell id="lfDJwgHwz_u-ardoweUy-179" style="edgeStyle=orthogonalEdgeStyle;rounded=0;orthogonalLoop=1;jettySize=auto;html=1;entryX=0.626;entryY=0.998;entryDx=0;entryDy=0;entryPerimeter=0;endArrow=none;startFill=0;endFill=1;" edge="1" parent="WIyWlLk6GJQsqaUBKTNV-1" source="lfDJwgHwz_u-ardoweUy-178" target="lfDJwgHwz_u-ardoweUy-140">
          <mxGeometry relative="1" as="geometry">
            <Array as="points">
              <mxPoint x="580" y="780" />
              <mxPoint x="490" y="780" />
            </Array>
          </mxGeometry>
        </mxCell>
        <mxCell id="lfDJwgHwz_u-ardoweUy-180" style="edgeStyle=orthogonalEdgeStyle;rounded=0;orthogonalLoop=1;jettySize=auto;html=1;entryX=0.349;entryY=1.007;entryDx=0;entryDy=0;entryPerimeter=0;endArrow=none;startFill=0;exitX=0.5;exitY=0;exitDx=0;exitDy=0;endFill=1;" edge="1" parent="WIyWlLk6GJQsqaUBKTNV-1" source="lfDJwgHwz_u-ardoweUy-177" target="lfDJwgHwz_u-ardoweUy-140">
          <mxGeometry relative="1" as="geometry" />
        </mxCell>
        <mxCell id="lfDJwgHwz_u-ardoweUy-181" value="1..1" style="text;html=1;align=center;verticalAlign=middle;resizable=0;points=[];autosize=1;strokeColor=none;fillColor=none;" vertex="1" parent="WIyWlLk6GJQsqaUBKTNV-1">
          <mxGeometry x="410" y="663" width="40" height="30" as="geometry" />
        </mxCell>
        <mxCell id="lfDJwgHwz_u-ardoweUy-182" value="1..1" style="text;html=1;align=center;verticalAlign=middle;resizable=0;points=[];autosize=1;strokeColor=none;fillColor=none;" vertex="1" parent="WIyWlLk6GJQsqaUBKTNV-1">
          <mxGeometry x="485" y="664" width="40" height="30" as="geometry" />
        </mxCell>
        <mxCell id="lfDJwgHwz_u-ardoweUy-183" value="1..1" style="text;html=1;align=center;verticalAlign=middle;resizable=0;points=[];autosize=1;strokeColor=none;fillColor=none;" vertex="1" parent="WIyWlLk6GJQsqaUBKTNV-1">
          <mxGeometry x="290" y="844" width="40" height="30" as="geometry" />
        </mxCell>
        <mxCell id="lfDJwgHwz_u-ardoweUy-185" value="1..1" style="text;html=1;align=center;verticalAlign=middle;resizable=0;points=[];autosize=1;strokeColor=none;fillColor=none;" vertex="1" parent="WIyWlLk6GJQsqaUBKTNV-1">
          <mxGeometry x="570" y="845" width="40" height="30" as="geometry" />
        </mxCell>
        <mxCell id="lfDJwgHwz_u-ardoweUy-186" value="&lt;p style=&quot;margin:0px;margin-top:4px;text-align:center;&quot;&gt;&lt;span data-lucid-content=&quot;{&amp;quot;t&amp;quot;:&amp;quot;Poste&amp;quot;,&amp;quot;m&amp;quot;:[{&amp;quot;s&amp;quot;:0,&amp;quot;n&amp;quot;:&amp;quot;s&amp;quot;,&amp;quot;v&amp;quot;:22.22222222222222,&amp;quot;e&amp;quot;:5},{&amp;quot;s&amp;quot;:0,&amp;quot;n&amp;quot;:&amp;quot;fsp&amp;quot;,&amp;quot;v&amp;quot;:&amp;quot;ss_presetShapeStyle1_textStyle&amp;quot;,&amp;quot;e&amp;quot;:5},{&amp;quot;s&amp;quot;:0,&amp;quot;n&amp;quot;:&amp;quot;fsp2&amp;quot;,&amp;quot;v&amp;quot;:&amp;quot;ss_presetShapeStyle1_textStyle&amp;quot;,&amp;quot;e&amp;quot;:5}]}&quot; data-lucid-type=&quot;application/vnd.lucid.text&quot;&gt;&lt;font&gt;&lt;b&gt;Titre&lt;/b&gt;&lt;/font&gt;&lt;/span&gt;&lt;/p&gt;&lt;hr size=&quot;1&quot; style=&quot;border-style:solid;&quot;&gt;&lt;p style=&quot;margin:0px;margin-left:4px;&quot;&gt;&lt;span data-lucid-content=&quot;{&amp;quot;t&amp;quot;:&amp;quot;-id:int \n-title:string\n-content:string\n-creationDate:Date&amp;quot;,&amp;quot;m&amp;quot;:[{&amp;quot;s&amp;quot;:0,&amp;quot;n&amp;quot;:&amp;quot;s&amp;quot;,&amp;quot;v&amp;quot;:22.22222222222222,&amp;quot;e&amp;quot;:57},{&amp;quot;s&amp;quot;:0,&amp;quot;n&amp;quot;:&amp;quot;fsp&amp;quot;,&amp;quot;v&amp;quot;:&amp;quot;ss_presetShapeStyle1_textStyle&amp;quot;,&amp;quot;e&amp;quot;:57},{&amp;quot;s&amp;quot;:0,&amp;quot;n&amp;quot;:&amp;quot;fsp2&amp;quot;,&amp;quot;v&amp;quot;:&amp;quot;ss_presetShapeStyle1_textStyle&amp;quot;,&amp;quot;e&amp;quot;:57}]}&quot; data-lucid-type=&quot;application/vnd.lucid.text&quot;&gt;&lt;font&gt;- id:Integer&lt;br&gt;- nomTitre:String&lt;/font&gt;&lt;/span&gt;&lt;/p&gt;&lt;p style=&quot;margin:0px;margin-left:4px;&quot;&gt;&lt;span data-lucid-content=&quot;{&amp;quot;t&amp;quot;:&amp;quot;-id:int \n-title:string\n-content:string\n-creationDate:Date&amp;quot;,&amp;quot;m&amp;quot;:[{&amp;quot;s&amp;quot;:0,&amp;quot;n&amp;quot;:&amp;quot;s&amp;quot;,&amp;quot;v&amp;quot;:22.22222222222222,&amp;quot;e&amp;quot;:57},{&amp;quot;s&amp;quot;:0,&amp;quot;n&amp;quot;:&amp;quot;fsp&amp;quot;,&amp;quot;v&amp;quot;:&amp;quot;ss_presetShapeStyle1_textStyle&amp;quot;,&amp;quot;e&amp;quot;:57},{&amp;quot;s&amp;quot;:0,&amp;quot;n&amp;quot;:&amp;quot;fsp2&amp;quot;,&amp;quot;v&amp;quot;:&amp;quot;ss_presetShapeStyle1_textStyle&amp;quot;,&amp;quot;e&amp;quot;:57}]}&quot; data-lucid-type=&quot;application/vnd.lucid.text&quot;&gt;&lt;font&gt;- image:String&lt;/font&gt;&lt;/span&gt;&lt;/p&gt;&lt;p style=&quot;margin:0px;margin-left:4px;&quot;&gt;&lt;span data-lucid-content=&quot;{&amp;quot;t&amp;quot;:&amp;quot;-id:int \n-title:string\n-content:string\n-creationDate:Date&amp;quot;,&amp;quot;m&amp;quot;:[{&amp;quot;s&amp;quot;:0,&amp;quot;n&amp;quot;:&amp;quot;s&amp;quot;,&amp;quot;v&amp;quot;:22.22222222222222,&amp;quot;e&amp;quot;:57},{&amp;quot;s&amp;quot;:0,&amp;quot;n&amp;quot;:&amp;quot;fsp&amp;quot;,&amp;quot;v&amp;quot;:&amp;quot;ss_presetShapeStyle1_textStyle&amp;quot;,&amp;quot;e&amp;quot;:57},{&amp;quot;s&amp;quot;:0,&amp;quot;n&amp;quot;:&amp;quot;fsp2&amp;quot;,&amp;quot;v&amp;quot;:&amp;quot;ss_presetShapeStyle1_textStyle&amp;quot;,&amp;quot;e&amp;quot;:57}]}&quot; data-lucid-type=&quot;application/vnd.lucid.text&quot;&gt;&lt;font&gt;- descriptionTitre:String&lt;/font&gt;&lt;/span&gt;&lt;/p&gt;&lt;p style=&quot;margin:0px;margin-left:4px;&quot;&gt;&lt;span data-lucid-content=&quot;{&amp;quot;t&amp;quot;:&amp;quot;-id:int \n-title:string\n-content:string\n-creationDate:Date&amp;quot;,&amp;quot;m&amp;quot;:[{&amp;quot;s&amp;quot;:0,&amp;quot;n&amp;quot;:&amp;quot;s&amp;quot;,&amp;quot;v&amp;quot;:22.22222222222222,&amp;quot;e&amp;quot;:57},{&amp;quot;s&amp;quot;:0,&amp;quot;n&amp;quot;:&amp;quot;fsp&amp;quot;,&amp;quot;v&amp;quot;:&amp;quot;ss_presetShapeStyle1_textStyle&amp;quot;,&amp;quot;e&amp;quot;:57},{&amp;quot;s&amp;quot;:0,&amp;quot;n&amp;quot;:&amp;quot;fsp2&amp;quot;,&amp;quot;v&amp;quot;:&amp;quot;ss_presetShapeStyle1_textStyle&amp;quot;,&amp;quot;e&amp;quot;:57}]}&quot; data-lucid-type=&quot;application/vnd.lucid.text&quot;&gt;&lt;font&gt;- number:Iteger&lt;br&gt;- creationDate:Date&lt;/font&gt;&lt;/span&gt;&lt;/p&gt;&lt;hr size=&quot;1&quot; style=&quot;border-style:solid;&quot;&gt;&lt;p style=&quot;margin:0px;margin-left:4px;&quot;&gt;&lt;br&gt;&lt;/p&gt;" style="verticalAlign=top;align=left;overflow=fill;html=1;whiteSpace=wrap;" vertex="1" parent="WIyWlLk6GJQsqaUBKTNV-1">
          <mxGeometry x="770" y="870" width="160" height="140" as="geometry" />
        </mxCell>
        <mxCell id="lfDJwgHwz_u-ardoweUy-188" value="1..1" style="text;html=1;align=center;verticalAlign=middle;resizable=0;points=[];autosize=1;strokeColor=none;fillColor=none;" vertex="1" parent="WIyWlLk6GJQsqaUBKTNV-1">
          <mxGeometry x="651" y="933" width="40" height="30" as="geometry" />
        </mxCell>
        <mxCell id="lfDJwgHwz_u-ardoweUy-189" value="0..*" style="text;html=1;align=center;verticalAlign=middle;resizable=0;points=[];autosize=1;strokeColor=none;fillColor=none;" vertex="1" parent="WIyWlLk6GJQsqaUBKTNV-1">
          <mxGeometry x="737" y="936" width="40" height="30" as="geometry" />
        </mxCell>
        <mxCell id="lfDJwgHwz_u-ardoweUy-190" value="&lt;p style=&quot;margin:0px;margin-top:4px;text-align:center;&quot;&gt;&lt;span data-lucid-content=&quot;{&amp;quot;t&amp;quot;:&amp;quot;Poste&amp;quot;,&amp;quot;m&amp;quot;:[{&amp;quot;s&amp;quot;:0,&amp;quot;n&amp;quot;:&amp;quot;s&amp;quot;,&amp;quot;v&amp;quot;:22.22222222222222,&amp;quot;e&amp;quot;:5},{&amp;quot;s&amp;quot;:0,&amp;quot;n&amp;quot;:&amp;quot;fsp&amp;quot;,&amp;quot;v&amp;quot;:&amp;quot;ss_presetShapeStyle1_textStyle&amp;quot;,&amp;quot;e&amp;quot;:5},{&amp;quot;s&amp;quot;:0,&amp;quot;n&amp;quot;:&amp;quot;fsp2&amp;quot;,&amp;quot;v&amp;quot;:&amp;quot;ss_presetShapeStyle1_textStyle&amp;quot;,&amp;quot;e&amp;quot;:5}]}&quot; data-lucid-type=&quot;application/vnd.lucid.text&quot;&gt;&lt;font&gt;&lt;b&gt;Experience&lt;/b&gt;&lt;/font&gt;&lt;/span&gt;&lt;/p&gt;&lt;hr size=&quot;1&quot; style=&quot;border-style:solid;&quot;&gt;&lt;p style=&quot;margin:0px;margin-left:4px;&quot;&gt;&lt;span data-lucid-content=&quot;{&amp;quot;t&amp;quot;:&amp;quot;-id:int \n-title:string\n-content:string\n-creationDate:Date&amp;quot;,&amp;quot;m&amp;quot;:[{&amp;quot;s&amp;quot;:0,&amp;quot;n&amp;quot;:&amp;quot;s&amp;quot;,&amp;quot;v&amp;quot;:22.22222222222222,&amp;quot;e&amp;quot;:57},{&amp;quot;s&amp;quot;:0,&amp;quot;n&amp;quot;:&amp;quot;fsp&amp;quot;,&amp;quot;v&amp;quot;:&amp;quot;ss_presetShapeStyle1_textStyle&amp;quot;,&amp;quot;e&amp;quot;:57},{&amp;quot;s&amp;quot;:0,&amp;quot;n&amp;quot;:&amp;quot;fsp2&amp;quot;,&amp;quot;v&amp;quot;:&amp;quot;ss_presetShapeStyle1_textStyle&amp;quot;,&amp;quot;e&amp;quot;:57}]}&quot; data-lucid-type=&quot;application/vnd.lucid.text&quot;&gt;&lt;font&gt;- id:Integer&lt;br&gt;- nomClub:String&lt;/font&gt;&lt;/span&gt;&lt;/p&gt;&lt;p style=&quot;margin:0px;margin-left:4px;&quot;&gt;&lt;span data-lucid-content=&quot;{&amp;quot;t&amp;quot;:&amp;quot;-id:int \n-title:string\n-content:string\n-creationDate:Date&amp;quot;,&amp;quot;m&amp;quot;:[{&amp;quot;s&amp;quot;:0,&amp;quot;n&amp;quot;:&amp;quot;s&amp;quot;,&amp;quot;v&amp;quot;:22.22222222222222,&amp;quot;e&amp;quot;:57},{&amp;quot;s&amp;quot;:0,&amp;quot;n&amp;quot;:&amp;quot;fsp&amp;quot;,&amp;quot;v&amp;quot;:&amp;quot;ss_presetShapeStyle1_textStyle&amp;quot;,&amp;quot;e&amp;quot;:57},{&amp;quot;s&amp;quot;:0,&amp;quot;n&amp;quot;:&amp;quot;fsp2&amp;quot;,&amp;quot;v&amp;quot;:&amp;quot;ss_presetShapeStyle1_textStyle&amp;quot;,&amp;quot;e&amp;quot;:57}]}&quot; data-lucid-type=&quot;application/vnd.lucid.text&quot;&gt;&lt;font&gt;- image:String&lt;/font&gt;&lt;/span&gt;&lt;/p&gt;&lt;p style=&quot;margin:0px;margin-left:4px;&quot;&gt;&lt;span data-lucid-content=&quot;{&amp;quot;t&amp;quot;:&amp;quot;-id:int \n-title:string\n-content:string\n-creationDate:Date&amp;quot;,&amp;quot;m&amp;quot;:[{&amp;quot;s&amp;quot;:0,&amp;quot;n&amp;quot;:&amp;quot;s&amp;quot;,&amp;quot;v&amp;quot;:22.22222222222222,&amp;quot;e&amp;quot;:57},{&amp;quot;s&amp;quot;:0,&amp;quot;n&amp;quot;:&amp;quot;fsp&amp;quot;,&amp;quot;v&amp;quot;:&amp;quot;ss_presetShapeStyle1_textStyle&amp;quot;,&amp;quot;e&amp;quot;:57},{&amp;quot;s&amp;quot;:0,&amp;quot;n&amp;quot;:&amp;quot;fsp2&amp;quot;,&amp;quot;v&amp;quot;:&amp;quot;ss_presetShapeStyle1_textStyle&amp;quot;,&amp;quot;e&amp;quot;:57}]}&quot; data-lucid-type=&quot;application/vnd.lucid.text&quot;&gt;&lt;font&gt;- joininDate:Date&lt;/font&gt;&lt;/span&gt;&lt;/p&gt;&lt;p style=&quot;margin:0px;margin-left:4px;&quot;&gt;&lt;span data-lucid-content=&quot;{&amp;quot;t&amp;quot;:&amp;quot;-id:int \n-title:string\n-content:string\n-creationDate:Date&amp;quot;,&amp;quot;m&amp;quot;:[{&amp;quot;s&amp;quot;:0,&amp;quot;n&amp;quot;:&amp;quot;s&amp;quot;,&amp;quot;v&amp;quot;:22.22222222222222,&amp;quot;e&amp;quot;:57},{&amp;quot;s&amp;quot;:0,&amp;quot;n&amp;quot;:&amp;quot;fsp&amp;quot;,&amp;quot;v&amp;quot;:&amp;quot;ss_presetShapeStyle1_textStyle&amp;quot;,&amp;quot;e&amp;quot;:57},{&amp;quot;s&amp;quot;:0,&amp;quot;n&amp;quot;:&amp;quot;fsp2&amp;quot;,&amp;quot;v&amp;quot;:&amp;quot;ss_presetShapeStyle1_textStyle&amp;quot;,&amp;quot;e&amp;quot;:57}]}&quot; data-lucid-type=&quot;application/vnd.lucid.text&quot;&gt;&lt;font&gt;- exitDate:Dare&lt;br&gt;- place:String&lt;/font&gt;&lt;/span&gt;&lt;/p&gt;&lt;p style=&quot;margin:0px;margin-left:4px;&quot;&gt;&lt;span data-lucid-content=&quot;{&amp;quot;t&amp;quot;:&amp;quot;-id:int \n-title:string\n-content:string\n-creationDate:Date&amp;quot;,&amp;quot;m&amp;quot;:[{&amp;quot;s&amp;quot;:0,&amp;quot;n&amp;quot;:&amp;quot;s&amp;quot;,&amp;quot;v&amp;quot;:22.22222222222222,&amp;quot;e&amp;quot;:57},{&amp;quot;s&amp;quot;:0,&amp;quot;n&amp;quot;:&amp;quot;fsp&amp;quot;,&amp;quot;v&amp;quot;:&amp;quot;ss_presetShapeStyle1_textStyle&amp;quot;,&amp;quot;e&amp;quot;:57},{&amp;quot;s&amp;quot;:0,&amp;quot;n&amp;quot;:&amp;quot;fsp2&amp;quot;,&amp;quot;v&amp;quot;:&amp;quot;ss_presetShapeStyle1_textStyle&amp;quot;,&amp;quot;e&amp;quot;:57}]}&quot; data-lucid-type=&quot;application/vnd.lucid.text&quot;&gt;&lt;font&gt;- &lt;font style=&quot;font-size: 11px;&quot;&gt;categoryType:CategoryType&lt;/font&gt;&lt;/font&gt;&lt;/span&gt;&lt;/p&gt;&lt;hr size=&quot;1&quot; style=&quot;border-style:solid;&quot;&gt;&lt;p style=&quot;margin:0px;margin-left:4px;&quot;&gt;&lt;br&gt;&lt;/p&gt;" style="verticalAlign=top;align=left;overflow=fill;html=1;whiteSpace=wrap;" vertex="1" parent="WIyWlLk6GJQsqaUBKTNV-1">
          <mxGeometry x="-42" y="844" width="160" height="156" as="geometry" />
        </mxCell>
        <mxCell id="lfDJwgHwz_u-ardoweUy-191" style="edgeStyle=orthogonalEdgeStyle;rounded=0;orthogonalLoop=1;jettySize=auto;html=1;entryX=1.007;entryY=0.388;entryDx=0;entryDy=0;entryPerimeter=0;endArrow=none;startFill=0;" edge="1" parent="WIyWlLk6GJQsqaUBKTNV-1" source="lfDJwgHwz_u-ardoweUy-177" target="lfDJwgHwz_u-ardoweUy-190">
          <mxGeometry relative="1" as="geometry" />
        </mxCell>
        <mxCell id="lfDJwgHwz_u-ardoweUy-192" value="1..1" style="text;html=1;align=center;verticalAlign=middle;resizable=0;points=[];autosize=1;strokeColor=none;fillColor=none;" vertex="1" parent="WIyWlLk6GJQsqaUBKTNV-1">
          <mxGeometry x="210" y="880" width="40" height="30" as="geometry" />
        </mxCell>
        <mxCell id="lfDJwgHwz_u-ardoweUy-193" value="0..*" style="text;html=1;align=center;verticalAlign=middle;resizable=0;points=[];autosize=1;strokeColor=none;fillColor=none;" vertex="1" parent="WIyWlLk6GJQsqaUBKTNV-1">
          <mxGeometry x="110" y="878" width="40" height="30" as="geometry" />
        </mxCell>
        <mxCell id="lfDJwgHwz_u-ardoweUy-194" value="&lt;p style=&quot;margin:0px;margin-top:4px;text-align:center;&quot;&gt;&lt;span style=&quot;font-weight: 700;&quot; data-lucid-content=&quot;{&amp;quot;t&amp;quot;:&amp;quot;&lt;&lt;enum&gt;&gt; RoleType&amp;quot;,&amp;quot;m&amp;quot;:[{&amp;quot;s&amp;quot;:0,&amp;quot;n&amp;quot;:&amp;quot;c&amp;quot;,&amp;quot;v&amp;quot;:&amp;quot;#000000ff&amp;quot;,&amp;quot;e&amp;quot;:9},{&amp;quot;s&amp;quot;:0,&amp;quot;n&amp;quot;:&amp;quot;fsp&amp;quot;,&amp;quot;v&amp;quot;:&amp;quot;ss_presetShapeStyle1_textStyle&amp;quot;,&amp;quot;e&amp;quot;:9},{&amp;quot;s&amp;quot;:0,&amp;quot;n&amp;quot;:&amp;quot;s&amp;quot;,&amp;quot;v&amp;quot;:22.22222222222222,&amp;quot;e&amp;quot;:9},{&amp;quot;s&amp;quot;:9,&amp;quot;n&amp;quot;:&amp;quot;s&amp;quot;,&amp;quot;v&amp;quot;:21.333333333333336,&amp;quot;e&amp;quot;:17}]}&quot; data-lucid-type=&quot;application/vnd.lucid.text&quot;&gt;&amp;lt;&amp;lt;enum&amp;gt;&amp;gt; &lt;/span&gt;&lt;/p&gt;&lt;div style=&quot;font-weight: 700; text-align: center;&quot;&gt;&lt;span data-lucid-content=&quot;{&amp;quot;t&amp;quot;:&amp;quot;&lt;&lt;enum&gt;&gt; RoleType&amp;quot;,&amp;quot;m&amp;quot;:[{&amp;quot;s&amp;quot;:0,&amp;quot;n&amp;quot;:&amp;quot;c&amp;quot;,&amp;quot;v&amp;quot;:&amp;quot;#000000ff&amp;quot;,&amp;quot;e&amp;quot;:9},{&amp;quot;s&amp;quot;:0,&amp;quot;n&amp;quot;:&amp;quot;fsp&amp;quot;,&amp;quot;v&amp;quot;:&amp;quot;ss_presetShapeStyle1_textStyle&amp;quot;,&amp;quot;e&amp;quot;:9},{&amp;quot;s&amp;quot;:0,&amp;quot;n&amp;quot;:&amp;quot;s&amp;quot;,&amp;quot;v&amp;quot;:22.22222222222222,&amp;quot;e&amp;quot;:9},{&amp;quot;s&amp;quot;:9,&amp;quot;n&amp;quot;:&amp;quot;s&amp;quot;,&amp;quot;v&amp;quot;:21.333333333333336,&amp;quot;e&amp;quot;:17}]}&quot; data-lucid-type=&quot;application/vnd.lucid.text&quot;&gt;CategoryType&lt;/span&gt;&lt;/div&gt;&lt;hr size=&quot;1&quot; style=&quot;border-style:solid;&quot;&gt;&lt;p style=&quot;margin:0px;margin-left:4px;&quot;&gt;SENIOR&lt;br&gt;ESPOIR&lt;br&gt;&lt;/p&gt;&lt;p style=&quot;margin:0px;margin-left:4px;&quot;&gt;JUNIOR&lt;/p&gt;&lt;p style=&quot;margin:0px;margin-left:4px;&quot;&gt;CADET&lt;/p&gt;&lt;p style=&quot;margin:0px;margin-left:4px;&quot;&gt;MINIM&lt;/p&gt;&lt;hr size=&quot;1&quot; style=&quot;border-style:solid;&quot;&gt;&lt;p style=&quot;margin:0px;margin-left:4px;&quot;&gt;&lt;br&gt;&lt;/p&gt;" style="verticalAlign=top;align=left;overflow=fill;html=1;whiteSpace=wrap;" vertex="1" parent="WIyWlLk6GJQsqaUBKTNV-1">
          <mxGeometry x="-330" y="845" width="160" height="137" as="geometry" />
        </mxCell>
        <mxCell id="lfDJwgHwz_u-ardoweUy-196" style="edgeStyle=orthogonalEdgeStyle;rounded=0;orthogonalLoop=1;jettySize=auto;html=1;entryX=0;entryY=0.448;entryDx=0;entryDy=0;entryPerimeter=0;endArrow=circlePlus;endFill=0;" edge="1" parent="WIyWlLk6GJQsqaUBKTNV-1" source="lfDJwgHwz_u-ardoweUy-194" target="lfDJwgHwz_u-ardoweUy-190">
          <mxGeometry relative="1" as="geometry" />
        </mxCell>
        <mxCell id="lfDJwgHwz_u-ardoweUy-197" value="&lt;span style=&quot;text-wrap-mode: wrap;&quot;&gt;gérer&amp;nbsp;&lt;/span&gt;" style="text;html=1;align=center;verticalAlign=middle;resizable=0;points=[];autosize=1;strokeColor=none;fillColor=none;fontSize=10;" vertex="1" parent="WIyWlLk6GJQsqaUBKTNV-1">
          <mxGeometry x="305" y="538" width="50" height="30" as="geometry" />
        </mxCell>
        <mxCell id="lfDJwgHwz_u-ardoweUy-198" value="&lt;span style=&quot;font-size: 10px; text-wrap-mode: wrap;&quot;&gt;gérer&amp;nbsp;&lt;/span&gt;" style="text;html=1;align=center;verticalAlign=middle;resizable=0;points=[];autosize=1;strokeColor=none;fillColor=none;" vertex="1" parent="WIyWlLk6GJQsqaUBKTNV-1">
          <mxGeometry x="85" y="30" width="50" height="30" as="geometry" />
        </mxCell>
        <mxCell id="lfDJwgHwz_u-ardoweUy-199" value="&lt;span style=&quot;font-size: 10px; text-wrap-mode: wrap;&quot;&gt;gérer&amp;nbsp;&lt;/span&gt;" style="text;html=1;align=center;verticalAlign=middle;resizable=0;points=[];autosize=1;strokeColor=none;fillColor=none;rotation=0;" vertex="1" parent="WIyWlLk6GJQsqaUBKTNV-1">
          <mxGeometry x="315" y="454" width="50" height="30" as="geometry" />
        </mxCell>
        <mxCell id="lfDJwgHwz_u-ardoweUy-200" value="&lt;span style=&quot;font-size: 12px;&quot;&gt;avoir&lt;/span&gt;" style="text;html=1;align=center;verticalAlign=middle;resizable=0;points=[];autosize=1;strokeColor=none;fillColor=none;fontSize=11;" vertex="1" parent="WIyWlLk6GJQsqaUBKTNV-1">
          <mxGeometry x="55" y="328" width="50" height="30" as="geometry" />
        </mxCell>
        <mxCell id="lfDJwgHwz_u-ardoweUy-201" value="ajouter" style="text;html=1;align=center;verticalAlign=middle;resizable=0;points=[];autosize=1;strokeColor=none;fillColor=none;" vertex="1" parent="WIyWlLk6GJQsqaUBKTNV-1">
          <mxGeometry x="8" y="537" width="60" height="30" as="geometry" />
        </mxCell>
        <mxCell id="lfDJwgHwz_u-ardoweUy-202" value="modifier" style="text;html=1;align=center;verticalAlign=middle;resizable=0;points=[];autosize=1;strokeColor=none;fillColor=none;fontSize=10;" vertex="1" parent="WIyWlLk6GJQsqaUBKTNV-1">
          <mxGeometry x="350" y="748" width="60" height="30" as="geometry" />
        </mxCell>
        <mxCell id="lfDJwgHwz_u-ardoweUy-203" value="modifier" style="text;html=1;align=center;verticalAlign=middle;resizable=0;points=[];autosize=1;strokeColor=none;fillColor=none;fontSize=10;" vertex="1" parent="WIyWlLk6GJQsqaUBKTNV-1">
          <mxGeometry x="500" y="758" width="60" height="30" as="geometry" />
        </mxCell>
        <mxCell id="lfDJwgHwz_u-ardoweUy-204" value="&lt;span style=&quot;font-size: 10px; text-wrap-mode: wrap;&quot;&gt;gérer&amp;nbsp;&lt;/span&gt;" style="text;html=1;align=center;verticalAlign=middle;resizable=0;points=[];autosize=1;strokeColor=none;fillColor=none;" vertex="1" parent="WIyWlLk6GJQsqaUBKTNV-1">
          <mxGeometry x="155" y="878" width="50" height="30" as="geometry" />
        </mxCell>
        <mxCell id="lfDJwgHwz_u-ardoweUy-205" value="&lt;span style=&quot;font-size: 10px; text-wrap-mode: wrap;&quot;&gt;gérer&amp;nbsp;&lt;/span&gt;" style="text;html=1;align=center;verticalAlign=middle;resizable=0;points=[];autosize=1;strokeColor=none;fillColor=none;" vertex="1" parent="WIyWlLk6GJQsqaUBKTNV-1">
          <mxGeometry x="695" y="914" width="50" height="30" as="geometry" />
        </mxCell>
        <mxCell id="lfDJwgHwz_u-ardoweUy-206" value="communication" style="text;html=1;align=center;verticalAlign=middle;resizable=0;points=[];autosize=1;strokeColor=none;fillColor=none;" vertex="1" parent="WIyWlLk6GJQsqaUBKTNV-1">
          <mxGeometry x="728" y="477" width="100" height="30" as="geometry" />
        </mxCell>
        <mxCell id="lfDJwgHwz_u-ardoweUy-208" value="abonnement" style="text;html=1;align=center;verticalAlign=middle;resizable=0;points=[];autosize=1;strokeColor=none;fillColor=none;rotation=270;" vertex="1" parent="WIyWlLk6GJQsqaUBKTNV-1">
          <mxGeometry x="610" y="343" width="90" height="30" as="geometry" />
        </mxCell>
        <mxCell id="lfDJwgHwz_u-ardoweUy-209" value="avoir" style="text;html=1;align=center;verticalAlign=middle;resizable=0;points=[];autosize=1;strokeColor=none;fillColor=none;rotation=0;" vertex="1" parent="WIyWlLk6GJQsqaUBKTNV-1">
          <mxGeometry x="195" y="458" width="50" height="30" as="geometry" />
        </mxCell>
        <mxCell id="lfDJwgHwz_u-ardoweUy-211" value="&lt;p style=&quot;margin:0px;margin-top:4px;text-align:center;&quot;&gt;&lt;span data-lucid-content=&quot;{&amp;quot;t&amp;quot;:&amp;quot;Poste&amp;quot;,&amp;quot;m&amp;quot;:[{&amp;quot;s&amp;quot;:0,&amp;quot;n&amp;quot;:&amp;quot;s&amp;quot;,&amp;quot;v&amp;quot;:22.22222222222222,&amp;quot;e&amp;quot;:5},{&amp;quot;s&amp;quot;:0,&amp;quot;n&amp;quot;:&amp;quot;fsp&amp;quot;,&amp;quot;v&amp;quot;:&amp;quot;ss_presetShapeStyle1_textStyle&amp;quot;,&amp;quot;e&amp;quot;:5},{&amp;quot;s&amp;quot;:0,&amp;quot;n&amp;quot;:&amp;quot;fsp2&amp;quot;,&amp;quot;v&amp;quot;:&amp;quot;ss_presetShapeStyle1_textStyle&amp;quot;,&amp;quot;e&amp;quot;:5}]}&quot; data-lucid-type=&quot;application/vnd.lucid.text&quot;&gt;&lt;font&gt;&lt;b&gt;Joueur&lt;/b&gt;&lt;/font&gt;&lt;/span&gt;&lt;/p&gt;&lt;hr size=&quot;1&quot; style=&quot;border-style:solid;&quot;&gt;&lt;p style=&quot;margin:0px;margin-left:4px;&quot;&gt;&lt;span data-lucid-content=&quot;{&amp;quot;t&amp;quot;:&amp;quot;-id:int \n-title:string\n-content:string\n-creationDate:Date&amp;quot;,&amp;quot;m&amp;quot;:[{&amp;quot;s&amp;quot;:0,&amp;quot;n&amp;quot;:&amp;quot;s&amp;quot;,&amp;quot;v&amp;quot;:22.22222222222222,&amp;quot;e&amp;quot;:57},{&amp;quot;s&amp;quot;:0,&amp;quot;n&amp;quot;:&amp;quot;fsp&amp;quot;,&amp;quot;v&amp;quot;:&amp;quot;ss_presetShapeStyle1_textStyle&amp;quot;,&amp;quot;e&amp;quot;:57},{&amp;quot;s&amp;quot;:0,&amp;quot;n&amp;quot;:&amp;quot;fsp2&amp;quot;,&amp;quot;v&amp;quot;:&amp;quot;ss_presetShapeStyle1_textStyle&amp;quot;,&amp;quot;e&amp;quot;:57}]}&quot; data-lucid-type=&quot;application/vnd.lucid.text&quot;&gt;&lt;font&gt;- id:Integer&lt;br&gt;&lt;/font&gt;&lt;/span&gt;&lt;/p&gt;&lt;p style=&quot;margin:0px;margin-left:4px;&quot;&gt;&lt;span data-lucid-content=&quot;{&amp;quot;t&amp;quot;:&amp;quot;-id:int \n-title:string\n-content:string\n-creationDate:Date&amp;quot;,&amp;quot;m&amp;quot;:[{&amp;quot;s&amp;quot;:0,&amp;quot;n&amp;quot;:&amp;quot;s&amp;quot;,&amp;quot;v&amp;quot;:22.22222222222222,&amp;quot;e&amp;quot;:57},{&amp;quot;s&amp;quot;:0,&amp;quot;n&amp;quot;:&amp;quot;fsp&amp;quot;,&amp;quot;v&amp;quot;:&amp;quot;ss_presetShapeStyle1_textStyle&amp;quot;,&amp;quot;e&amp;quot;:57},{&amp;quot;s&amp;quot;:0,&amp;quot;n&amp;quot;:&amp;quot;fsp2&amp;quot;,&amp;quot;v&amp;quot;:&amp;quot;ss_presetShapeStyle1_textStyle&amp;quot;,&amp;quot;e&amp;quot;:57}]}&quot; data-lucid-type=&quot;application/vnd.lucid.text&quot;&gt;&lt;font&gt;- status:CategoryStatus&lt;/font&gt;&lt;/span&gt;&lt;/p&gt;&lt;hr size=&quot;1&quot; style=&quot;border-style:solid;&quot;&gt;&lt;p style=&quot;margin:0px;margin-left:4px;&quot;&gt;&lt;br&gt;&lt;/p&gt;" style="verticalAlign=top;align=left;overflow=fill;html=1;whiteSpace=wrap;" vertex="1" parent="WIyWlLk6GJQsqaUBKTNV-1">
          <mxGeometry x="355" y="1070" width="160" height="80" as="geometry" />
        </mxCell>
        <mxCell id="lfDJwgHwz_u-ardoweUy-213" style="edgeStyle=orthogonalEdgeStyle;rounded=0;orthogonalLoop=1;jettySize=auto;html=1;entryX=0.429;entryY=1.029;entryDx=0;entryDy=0;entryPerimeter=0;exitX=0;exitY=0.5;exitDx=0;exitDy=0;endArrow=none;startFill=0;" edge="1" parent="WIyWlLk6GJQsqaUBKTNV-1" source="lfDJwgHwz_u-ardoweUy-211" target="lfDJwgHwz_u-ardoweUy-177">
          <mxGeometry relative="1" as="geometry" />
        </mxCell>
        <mxCell id="lfDJwgHwz_u-ardoweUy-215" value="1..1" style="text;html=1;align=center;verticalAlign=middle;resizable=0;points=[];autosize=1;strokeColor=none;fillColor=none;" vertex="1" parent="WIyWlLk6GJQsqaUBKTNV-1">
          <mxGeometry x="542" y="1005" width="40" height="30" as="geometry" />
        </mxCell>
        <mxCell id="lfDJwgHwz_u-ardoweUy-216" value="0..*" style="text;html=1;align=center;verticalAlign=middle;resizable=0;points=[];autosize=1;strokeColor=none;fillColor=none;" vertex="1" parent="WIyWlLk6GJQsqaUBKTNV-1">
          <mxGeometry x="510" y="1078" width="40" height="30" as="geometry" />
        </mxCell>
        <mxCell id="lfDJwgHwz_u-ardoweUy-217" value="0..*" style="text;html=1;align=center;verticalAlign=middle;resizable=0;points=[];autosize=1;strokeColor=none;fillColor=none;" vertex="1" parent="WIyWlLk6GJQsqaUBKTNV-1">
          <mxGeometry x="320" y="1078" width="40" height="30" as="geometry" />
        </mxCell>
        <mxCell id="lfDJwgHwz_u-ardoweUy-218" value="1..1" style="text;html=1;align=center;verticalAlign=middle;resizable=0;points=[];autosize=1;strokeColor=none;fillColor=none;" vertex="1" parent="WIyWlLk6GJQsqaUBKTNV-1">
          <mxGeometry x="305" y="933" width="40" height="30" as="geometry" />
        </mxCell>
        <mxCell id="lfDJwgHwz_u-ardoweUy-221" style="edgeStyle=orthogonalEdgeStyle;rounded=0;orthogonalLoop=1;jettySize=auto;html=1;entryX=0.5;entryY=1;entryDx=0;entryDy=0;endArrow=circlePlus;endFill=0;" edge="1" parent="WIyWlLk6GJQsqaUBKTNV-1" source="lfDJwgHwz_u-ardoweUy-219" target="lfDJwgHwz_u-ardoweUy-211">
          <mxGeometry relative="1" as="geometry" />
        </mxCell>
        <mxCell id="lfDJwgHwz_u-ardoweUy-219" value="&lt;p style=&quot;margin:0px;margin-top:4px;text-align:center;&quot;&gt;&lt;span style=&quot;font-weight: 700;&quot; data-lucid-content=&quot;{&amp;quot;t&amp;quot;:&amp;quot;&lt;&lt;enum&gt;&gt; RoleType&amp;quot;,&amp;quot;m&amp;quot;:[{&amp;quot;s&amp;quot;:0,&amp;quot;n&amp;quot;:&amp;quot;c&amp;quot;,&amp;quot;v&amp;quot;:&amp;quot;#000000ff&amp;quot;,&amp;quot;e&amp;quot;:9},{&amp;quot;s&amp;quot;:0,&amp;quot;n&amp;quot;:&amp;quot;fsp&amp;quot;,&amp;quot;v&amp;quot;:&amp;quot;ss_presetShapeStyle1_textStyle&amp;quot;,&amp;quot;e&amp;quot;:9},{&amp;quot;s&amp;quot;:0,&amp;quot;n&amp;quot;:&amp;quot;s&amp;quot;,&amp;quot;v&amp;quot;:22.22222222222222,&amp;quot;e&amp;quot;:9},{&amp;quot;s&amp;quot;:9,&amp;quot;n&amp;quot;:&amp;quot;s&amp;quot;,&amp;quot;v&amp;quot;:21.333333333333336,&amp;quot;e&amp;quot;:17}]}&quot; data-lucid-type=&quot;application/vnd.lucid.text&quot;&gt;&amp;lt;&amp;lt;enum&amp;gt;&amp;gt; &lt;/span&gt;&lt;/p&gt;&lt;div style=&quot;font-weight: 700; text-align: center;&quot;&gt;&lt;font style=&quot;text-align: left;&quot;&gt;&lt;span style=&quot;font-size: 11px; background-color: transparent; color: light-dark(rgb(0, 0, 0), rgb(255, 255, 255));&quot;&gt;C&lt;/span&gt;&lt;/font&gt;&lt;span style=&quot;color: light-dark(rgb(0, 0, 0), rgb(255, 255, 255)); background-color: transparent; text-align: left;&quot;&gt;&lt;font style=&quot;font-size: 11px;&quot;&gt;ategoryStatus&lt;/font&gt;&lt;/span&gt;&lt;/div&gt;&lt;hr size=&quot;1&quot; style=&quot;border-style:solid;&quot;&gt;&lt;p style=&quot;margin:0px;margin-left:4px;&quot;&gt;PENDING&lt;br&gt;ACCEPTED&lt;/p&gt;&lt;p style=&quot;margin:0px;margin-left:4px;&quot;&gt;REJECTED&lt;/p&gt;&lt;hr size=&quot;1&quot; style=&quot;border-style:solid;&quot;&gt;&lt;p style=&quot;margin:0px;margin-left:4px;&quot;&gt;&lt;br&gt;&lt;/p&gt;" style="verticalAlign=top;align=left;overflow=fill;html=1;whiteSpace=wrap;" vertex="1" parent="WIyWlLk6GJQsqaUBKTNV-1">
          <mxGeometry x="355" y="1190" width="160" height="137" as="geometry" />
        </mxCell>
        <mxCell id="lfDJwgHwz_u-ardoweUy-222" value="envoi" style="text;html=1;align=center;verticalAlign=middle;resizable=0;points=[];autosize=1;strokeColor=none;fillColor=none;fontSize=10;rotation=270;" vertex="1" parent="WIyWlLk6GJQsqaUBKTNV-1">
          <mxGeometry x="546" y="1048" width="50" height="30" as="geometry" />
        </mxCell>
        <mxCell id="lfDJwgHwz_u-ardoweUy-223" value="réception" style="text;html=1;align=center;verticalAlign=middle;resizable=0;points=[];autosize=1;strokeColor=none;fillColor=none;rotation=270;" vertex="1" parent="WIyWlLk6GJQsqaUBKTNV-1">
          <mxGeometry x="263" y="1010" width="70" height="30" as="geometry" />
        </mxCell>
        <mxCell id="lfDJwgHwz_u-ardoweUy-225" value="&lt;p style=&quot;margin:0px;margin-top:4px;text-align:center;&quot;&gt;&lt;b&gt;Reply&lt;/b&gt;&lt;/p&gt;&lt;hr size=&quot;1&quot; style=&quot;border-style:solid;&quot;&gt;&lt;p style=&quot;margin:0px;margin-left:4px;&quot;&gt;&lt;span data-lucid-content=&quot;{&amp;quot;t&amp;quot;:&amp;quot;-id:int \n-title:string\n-content:string\n-creationDate:Date&amp;quot;,&amp;quot;m&amp;quot;:[{&amp;quot;s&amp;quot;:0,&amp;quot;n&amp;quot;:&amp;quot;s&amp;quot;,&amp;quot;v&amp;quot;:22.22222222222222,&amp;quot;e&amp;quot;:57},{&amp;quot;s&amp;quot;:0,&amp;quot;n&amp;quot;:&amp;quot;fsp&amp;quot;,&amp;quot;v&amp;quot;:&amp;quot;ss_presetShapeStyle1_textStyle&amp;quot;,&amp;quot;e&amp;quot;:57},{&amp;quot;s&amp;quot;:0,&amp;quot;n&amp;quot;:&amp;quot;fsp2&amp;quot;,&amp;quot;v&amp;quot;:&amp;quot;ss_presetShapeStyle1_textStyle&amp;quot;,&amp;quot;e&amp;quot;:57}]}&quot; data-lucid-type=&quot;application/vnd.lucid.text&quot;&gt;&lt;font&gt;- id:Integer&lt;br&gt;- content:String&lt;br&gt;- creationDate:Date&lt;/font&gt;&lt;/span&gt;&lt;/p&gt;&lt;hr size=&quot;1&quot; style=&quot;border-style:solid;&quot;&gt;&lt;p style=&quot;margin:0px;margin-left:4px;&quot;&gt;&lt;br&gt;&lt;/p&gt;" style="verticalAlign=top;align=left;overflow=fill;html=1;whiteSpace=wrap;" vertex="1" parent="WIyWlLk6GJQsqaUBKTNV-1">
          <mxGeometry x="-108" y="110" width="160" height="130" as="geometry" />
        </mxCell>
        <mxCell id="lfDJwgHwz_u-ardoweUy-228" value="avoir" style="text;html=1;align=center;verticalAlign=middle;resizable=0;points=[];autosize=1;strokeColor=none;fillColor=none;rotation=0;" vertex="1" parent="WIyWlLk6GJQsqaUBKTNV-1">
          <mxGeometry x="98" y="151" width="50" height="30" as="geometry" />
        </mxCell>
        <mxCell id="lfDJwgHwz_u-ardoweUy-229" value="1..1" style="text;html=1;align=center;verticalAlign=middle;resizable=0;points=[];autosize=1;strokeColor=none;fillColor=none;" vertex="1" parent="WIyWlLk6GJQsqaUBKTNV-1">
          <mxGeometry x="151" y="151" width="40" height="30" as="geometry" />
        </mxCell>
        <mxCell id="lfDJwgHwz_u-ardoweUy-230" value="0..*" style="text;html=1;align=center;verticalAlign=middle;resizable=0;points=[];autosize=1;strokeColor=none;fillColor=none;" vertex="1" parent="WIyWlLk6GJQsqaUBKTNV-1">
          <mxGeometry x="45" y="151" width="40" height="30" as="geometry" />
        </mxCell>
      </root>
    </mxGraphModel>
  </diagram>
</mxfile>
